<?xml version="1.0" encoding="utf-8"?>
<!-- Generator: Adobe Illustrator 16.0.0, SVG Export Plug-In . SVG Version: 6.00 Build 0)  -->
<!DOCTYPE svg PUBLIC "-//W3C//DTD SVG 1.1//EN" "http://www.w3.org/Graphics/SVG/1.1/DTD/svg11.dtd">
<svg version="1.1" id="レイヤー_1" xmlns="http://www.w3.org/2000/svg" xmlns:xlink="http://www.w3.org/1999/xlink" x="0px"
	 y="0px" width="357.165px" height="96px" viewBox="0 0 357.165 96" enable-background="new 0 0 357.165 96" xml:space="preserve">
<rect x="105.572" y="2.473" fill="#DFF2FC" stroke="#00A0E9" stroke-miterlimit="10" width="106.538" height="93.527"/>
<rect x="109.576" y="16.625" fill="#FEEFE7" stroke="#EF845D" stroke-miterlimit="10" width="99.733" height="38.541"/>
<rect x="109.576" y="57.333" fill="#FEEFE7" stroke="#EF845D" stroke-miterlimit="10" width="99.733" height="25.625"/>
<g>
	<path d="M111.506,5.356v5.474h3.104v0.67h-3.875V5.356H111.506z"/>
	<path d="M119.466,10.113c-0.109,0.444-0.382,1.559-1.988,1.559c-1.941,0-2.136-1.762-2.136-2.417c0-1.326,0.663-2.401,2.074-2.401
		c1.396,0,2.105,1.076,2.113,2.573h-3.454c0.046,0.975,0.405,1.646,1.396,1.646c0.203,0,1.092,0,1.248-0.959H119.466z
		 M118.788,8.865c-0.133-0.889-0.562-1.419-1.357-1.419c-0.788,0-1.224,0.53-1.341,1.419H118.788z"/>
	<path d="M120.955,10.151c0.062,0.834,0.772,0.92,1.083,0.92c0.148,0,1.131,0,1.131-0.733c0-0.476-0.265-0.562-1.201-0.842
		c-1.092-0.328-1.646-0.491-1.646-1.349c0-1.013,1.029-1.294,1.708-1.294c1.614,0,1.739,0.998,1.793,1.411h-0.733
		c-0.023-0.795-0.827-0.819-1.029-0.819c-0.655,0-0.998,0.273-0.998,0.632c0,0.382,0.109,0.499,1.287,0.857
		c1.006,0.312,1.56,0.546,1.56,1.326c0,1.014-0.904,1.411-1.793,1.411c-1.676,0-1.848-1.091-1.902-1.521H120.955z"/>
	<path d="M125.289,10.151c0.062,0.834,0.772,0.92,1.083,0.92c0.148,0,1.131,0,1.131-0.733c0-0.476-0.265-0.562-1.201-0.842
		c-1.092-0.328-1.646-0.491-1.646-1.349c0-1.013,1.029-1.294,1.708-1.294c1.614,0,1.739,0.998,1.793,1.411h-0.733
		c-0.023-0.795-0.827-0.819-1.029-0.819c-0.655,0-0.998,0.273-0.998,0.632c0,0.382,0.109,0.499,1.287,0.857
		c1.006,0.312,1.56,0.546,1.56,1.326c0,1.014-0.904,1.411-1.793,1.411c-1.676,0-1.848-1.091-1.902-1.521H125.289z"/>
	<path d="M133.108,9.263c0,1.809-1.123,2.409-2.09,2.409c-1.138,0-2.097-0.772-2.097-2.37c0-2.121,1.403-2.448,2.097-2.448
		C131.977,6.854,133.108,7.438,133.108,9.263z M129.662,9.263c0,0.749,0.351,1.809,1.356,1.809s1.349-1.076,1.349-1.809
		c0-0.741-0.343-1.817-1.349-1.817S129.662,8.514,129.662,9.263z"/>
	<path d="M134.752,7.017l0.016,0.655c0.156-0.226,0.554-0.818,1.419-0.818c0.764,0,1.606,0.53,1.606,1.676V11.5h-0.702V8.577
		c0-0.188-0.078-1.131-1.1-1.131c-0.749,0-1.224,0.655-1.224,1.287V11.5h-0.709V7.017H134.752z"/>
	<path d="M141.667,11.5h-0.764V7.095h-1.263V6.51c0.655-0.031,1.208-0.187,1.411-1.154h0.616V11.5z"/>
	<path d="M152.332,7.017c-0.741,1.747-1.676,3.969-4.538,5.115c-0.093-0.125-0.179-0.226-0.514-0.506
		c1.356-0.546,3.267-1.536,4.28-4.71h-2.588c-0.741,1.154-1.653,1.942-1.988,2.238c-0.141-0.148-0.343-0.343-0.522-0.483
		c1.224-0.928,2.183-2.238,2.706-3.618l0.655,0.281c0.031,0.016,0.109,0.047,0.109,0.109c0,0.086-0.133,0.109-0.187,0.109
		c-0.195,0.39-0.289,0.554-0.398,0.741h2.332c0.242,0,0.39-0.062,0.515-0.117l0.39,0.367C152.433,6.783,152.386,6.892,152.332,7.017
		z"/>
	<path d="M159.488,7.345c0.234,0,0.437-0.016,0.655-0.078l0.444,0.32c-0.101,0.171-0.468,0.951-0.545,1.107
		c-0.834,1.669-1.661,2.597-3.899,3.361c-0.187-0.234-0.21-0.273-0.483-0.562c1.895-0.515,3.181-1.403,3.938-3.524h-5.317V7.345
		H159.488z M159.675,5.465v0.624h-4.476V5.465H159.675z"/>
	<path d="M168.047,11.641c-0.671-0.975-1.489-1.84-2.448-2.534c-0.624,0.834-1.817,1.973-3.361,2.635
		c-0.132-0.273-0.226-0.413-0.437-0.601c0.717-0.257,3.345-1.325,4.491-4.857h-3.813v-0.64h3.922c0.125,0,0.406-0.015,0.53-0.054
		l0.382,0.358c-0.164,0.218-0.273,0.476-0.289,0.515c-0.304,0.741-0.632,1.474-1.076,2.137c0.741,0.522,1.833,1.458,2.644,2.487
		C168.32,11.329,168.281,11.36,168.047,11.641z"/>
	<path d="M172.286,8.6c0.726-0.062,0.655-0.671,0.647-0.764l-0.141-1.279c-0.008-0.055-0.015-0.172-0.015-0.25
		c0-0.289,0.164-0.85,1.068-1.123l0.265,0.375c-0.289,0.14-0.764,0.358-0.764,0.811c0,0.054,0.008,0.21,0.016,0.272l0.141,1.193
		c0.085,0.725-0.367,0.967-0.515,1.029c0.148,0.062,0.6,0.312,0.515,1.037l-0.141,1.186c-0.008,0.078-0.016,0.203-0.016,0.273
		c0,0.452,0.468,0.67,0.764,0.811l-0.273,0.375c-1.06-0.32-1.06-1.037-1.06-1.092s0.007-0.234,0.015-0.281l0.141-1.279
		c0.055-0.468-0.21-0.725-0.647-0.764V8.6z"/>
	<path d="M119.271,20.729c-0.047-0.874-0.507-1.224-1.341-1.224c-0.156,0-1.31,0-1.31,0.959c0,0.639,0.429,0.803,1.645,1.255
		c1.248,0.468,1.957,0.725,1.957,1.77c0,0.78-0.562,1.824-2.183,1.824c-1.107,0-2.347-0.515-2.386-2.02h0.819
		c0.008,0.881,0.608,1.341,1.513,1.341c0.866,0,1.458-0.491,1.458-1.076c0-0.639-0.515-0.834-1.497-1.177
		c-1.349-0.476-2.105-0.749-2.105-1.825c0-1.052,0.873-1.731,2.082-1.731c1.014,0,1.996,0.398,2.145,1.903H119.271z"/>
	<path d="M122.287,19.411v1.248h0.975v0.569h-0.975v2.979c0,0.452,0.351,0.483,0.741,0.483h0.234v0.608
		c-0.085,0.008-0.179,0.016-0.358,0.016c-0.46,0-1.326,0-1.326-1.091v-2.994h-0.741v-0.569h0.741v-1.248H122.287z"/>
	<path d="M124.111,21.953c0.031-1.014,0.913-1.458,1.872-1.458c0.624,0,1.833,0.226,1.833,1.481v2.409
		c0,0.179,0.046,0.522,0.195,0.655v0.102h-0.764c-0.117-0.179-0.133-0.46-0.133-0.554c-0.429,0.468-1.021,0.725-1.645,0.725
		c-0.709,0-1.614-0.351-1.614-1.38c0-1.068,0.92-1.208,2.417-1.45c0.554-0.086,0.85-0.133,0.85-0.577
		c0-0.179-0.109-0.819-1.138-0.819c-0.647,0-1.13,0.25-1.169,0.866H124.111z M127.113,22.818c-0.218,0.125-0.288,0.133-0.896,0.226
		c-1.31,0.195-1.622,0.359-1.622,0.874c0,0.328,0.226,0.795,0.982,0.795c0.912,0,1.536-0.663,1.536-1.068V22.818z"/>
	<path d="M129.693,20.659l0.008,0.616c0.132-0.227,0.452-0.78,1.606-0.78h0.32v0.709h-0.351c-0.522,0-0.803,0.117-0.975,0.203
		c-0.483,0.257-0.6,0.842-0.6,1.076v2.659h-0.709v-4.483H129.693z"/>
	<path d="M133.543,19.411v1.248h0.975v0.569h-0.975v2.979c0,0.452,0.351,0.483,0.741,0.483h0.234v0.608
		c-0.085,0.008-0.179,0.016-0.358,0.016c-0.46,0-1.326,0-1.326-1.091v-2.994h-0.741v-0.569h0.741v-1.248H133.543z"/>
	<path d="M142.642,19.676c-0.32,0.819-0.67,1.629-1.193,2.433c0.117,0.102,1.006,0.936,1.396,1.544
		c-0.187,0.164-0.351,0.328-0.499,0.538c-0.421-0.663-1.169-1.412-1.279-1.521c-0.85,1.13-1.965,2.027-3.228,2.643
		c-0.109-0.171-0.296-0.335-0.515-0.515c1.131-0.53,2.152-1.169,3.236-2.604c-0.148-0.133-0.881-0.788-1.817-1.38l0.39-0.53
		c0.546,0.367,1.232,0.866,1.809,1.365c0.234-0.382,0.756-1.271,1.107-2.55l0.709,0.328c0.07,0.031,0.109,0.062,0.109,0.109
		C142.868,19.614,142.767,19.661,142.642,19.676z"/>
	<path d="M146.476,21.859c-0.257-0.584-0.694-1.388-1.169-1.957l0.569-0.375c0.429,0.507,0.959,1.38,1.186,1.965
		C146.835,21.586,146.655,21.711,146.476,21.859z M151.264,19.388c-0.507,3.134-1.373,4.725-4.406,6.082
		c-0.125-0.234-0.28-0.414-0.46-0.585c1.528-0.601,2.519-1.31,3.143-2.316c0.515-0.834,0.928-2.027,1.006-3.509l0.725,0.125
		c0.078,0.016,0.164,0.047,0.164,0.101C151.435,19.372,151.326,19.388,151.264,19.388z"/>
	<path d="M154.225,22.522c-0.242-0.686-0.413-1.013-0.772-1.606l0.546-0.234c0.296,0.437,0.593,1.045,0.78,1.591
		C154.576,22.343,154.412,22.413,154.225,22.522z M158.731,20.807c-0.577,2.347-1.653,3.711-3.906,4.601
		c-0.141-0.21-0.21-0.304-0.39-0.507c0.952-0.328,3.228-1.201,3.712-4.515l0.6,0.187c0.102,0.031,0.141,0.062,0.141,0.117
		C158.888,20.768,158.817,20.791,158.731,20.807z M155.894,22.117c-0.18-0.577-0.382-1.053-0.726-1.614l0.554-0.226
		c0.328,0.53,0.554,1.013,0.733,1.614C156.393,21.906,156.12,21.984,155.894,22.117z"/>
	<path d="M166.379,23.403c-0.749-0.725-1.684-1.396-2.885-1.98v4.101h-0.702V18.78l0.709,0.054c0.102,0.008,0.148,0.031,0.148,0.094
		c0,0.086-0.102,0.109-0.156,0.117v2.223l0.304-0.421c0.686,0.335,1.879,0.959,2.994,1.988
		C166.597,23.052,166.426,23.317,166.379,23.403z M166.418,20.76c-0.226-0.304-0.507-0.569-0.819-0.811l0.382-0.312
		c0.304,0.21,0.671,0.569,0.842,0.749C166.683,20.495,166.574,20.596,166.418,20.76z M167.096,20.152
		c-0.39-0.437-0.686-0.663-0.834-0.772l0.367-0.312c0.164,0.117,0.569,0.46,0.818,0.749
		C167.314,19.91,167.197,20.027,167.096,20.152z"/>
	<path d="M170.454,22.242c0.726-0.062,0.655-0.671,0.647-0.764l-0.141-1.279c-0.008-0.055-0.015-0.172-0.015-0.25
		c0-0.289,0.164-0.85,1.068-1.123l0.265,0.375c-0.289,0.14-0.764,0.358-0.764,0.811c0,0.054,0.008,0.21,0.016,0.272l0.141,1.193
		c0.085,0.725-0.367,0.967-0.515,1.029c0.148,0.062,0.6,0.312,0.515,1.037l-0.141,1.186c-0.008,0.078-0.016,0.203-0.016,0.273
		c0,0.452,0.468,0.67,0.764,0.811l-0.273,0.375c-1.06-0.32-1.06-1.037-1.06-1.092s0.007-0.234,0.015-0.281l0.141-1.279
		c0.055-0.468-0.21-0.725-0.647-0.764V22.242z"/>
	<path d="M123.238,32.64c1.528,0,2.706,1.029,2.706,3.025c0,2.542-1.614,3.119-2.706,3.119h-2.105V32.64H123.238z M121.905,33.311
		v4.803h1.326c1.271,0,1.934-1.068,1.934-2.425c0-1.146-0.554-2.378-1.934-2.378H121.905z"/>
	<path d="M130.854,37.396c-0.109,0.444-0.382,1.559-1.988,1.559c-1.941,0-2.136-1.762-2.136-2.417c0-1.326,0.663-2.401,2.074-2.401
		c1.396,0,2.105,1.076,2.113,2.573h-3.454c0.046,0.975,0.405,1.646,1.396,1.646c0.203,0,1.092,0,1.248-0.959H130.854z
		 M130.176,36.149c-0.133-0.889-0.562-1.419-1.357-1.419c-0.788,0-1.224,0.53-1.341,1.419H130.176z"/>
	<path d="M132.577,32.64v2.261c0.125-0.203,0.499-0.764,1.38-0.764c0.913,0,1.872,0.694,1.872,2.417
		c0,1.552-0.819,2.401-1.856,2.401c-0.857,0-1.201-0.491-1.396-0.772l-0.016,0.601h-0.694V32.64H132.577z M132.577,36.546
		c0,1.591,0.857,1.809,1.255,1.809c0.289,0,1.255-0.117,1.255-1.809c0-1.614-0.874-1.817-1.255-1.817
		C133.528,34.729,132.577,34.862,132.577,36.546z"/>
	<path d="M137.488,34.301v2.924c0,0.187,0.078,1.131,1.091,1.131c0.749,0,1.232-0.655,1.232-1.287v-2.768h0.702v4.483h-0.694
		l-0.008-0.655c-0.156,0.226-0.561,0.826-1.427,0.826c-0.764,0-1.606-0.538-1.606-1.684v-2.971H137.488z"/>
	<path d="M145.791,34.761c-0.062-0.023-0.14-0.047-0.257-0.047c-0.257,0-0.405,0.125-0.483,0.195
		c0.047,0.117,0.102,0.242,0.102,0.452c0,0.764-0.663,1.232-1.676,1.232c-0.242,0-0.608-0.055-0.772-0.086
		c-0.094,0.031-0.351,0.148-0.351,0.328c0,0.21,0.226,0.273,1.169,0.358c0.936,0.086,1.412,0.141,1.731,0.382
		c0.281,0.203,0.453,0.507,0.453,0.896c0,1.357-1.918,1.357-2.191,1.357c-0.943,0-2.105-0.218-2.105-1.263
		c0-0.102,0-0.795,0.741-1.061c-0.21-0.094-0.507-0.234-0.507-0.562c0-0.187,0.093-0.405,0.608-0.616
		c-0.179-0.117-0.545-0.367-0.545-0.975c0-0.756,0.655-1.216,1.723-1.216c0.803,0,1.099,0.21,1.325,0.366
		c0.078-0.101,0.312-0.413,0.811-0.413c0.109,0,0.156,0.016,0.226,0.039V34.761z M142.126,38.472c0,0.499,0.413,0.795,1.442,0.795
		c0.53,0,1.38-0.094,1.38-0.764c0-0.452-0.351-0.577-0.445-0.608c-0.257-0.078-1.286-0.172-1.622-0.203
		C142.531,37.802,142.126,37.934,142.126,38.472z M142.454,35.361c0,0.686,0.85,0.702,0.975,0.709c0.101,0,0.982-0.008,0.982-0.709
		c0-0.437-0.359-0.702-0.975-0.702C142.773,34.66,142.454,34.948,142.454,35.361z"/>
	<path d="M147.435,38.784h-0.811v-0.866h0.811V38.784z"/>
	<path d="M149.469,32.64v5.474h3.104v0.67h-3.875V32.64H149.469z"/>
	<path d="M157.492,36.546c0,1.809-1.123,2.409-2.09,2.409c-1.138,0-2.097-0.772-2.097-2.37c0-2.121,1.403-2.448,2.097-2.448
		C156.361,34.137,157.492,34.722,157.492,36.546z M154.045,36.546c0,0.749,0.351,1.809,1.356,1.809s1.349-1.076,1.349-1.809
		c0-0.741-0.343-1.817-1.349-1.817S154.045,35.798,154.045,36.546z"/>
	<path d="M162.543,34.761c-0.062-0.023-0.14-0.047-0.257-0.047c-0.257,0-0.405,0.125-0.483,0.195
		c0.047,0.117,0.102,0.242,0.102,0.452c0,0.764-0.663,1.232-1.677,1.232c-0.242,0-0.608-0.055-0.771-0.086
		c-0.094,0.031-0.351,0.148-0.351,0.328c0,0.21,0.226,0.273,1.169,0.358c0.936,0.086,1.412,0.141,1.731,0.382
		c0.281,0.203,0.453,0.507,0.453,0.896c0,1.357-1.918,1.357-2.191,1.357c-0.943,0-2.105-0.218-2.105-1.263
		c0-0.102,0-0.795,0.741-1.061c-0.21-0.094-0.507-0.234-0.507-0.562c0-0.187,0.093-0.405,0.608-0.616
		c-0.179-0.117-0.545-0.367-0.545-0.975c0-0.756,0.655-1.216,1.723-1.216c0.803,0,1.099,0.21,1.325,0.366
		c0.078-0.101,0.312-0.413,0.811-0.413c0.109,0,0.156,0.016,0.226,0.039V34.761z M158.878,38.472c0,0.499,0.413,0.795,1.442,0.795
		c0.53,0,1.38-0.094,1.38-0.764c0-0.452-0.351-0.577-0.445-0.608c-0.257-0.078-1.286-0.172-1.622-0.203
		C159.284,37.802,158.878,37.934,158.878,38.472z M159.206,35.361c0,0.686,0.85,0.702,0.975,0.709c0.101,0,0.982-0.008,0.982-0.709
		c0-0.437-0.359-0.702-0.975-0.702C159.525,34.66,159.206,34.948,159.206,35.361z"/>
	<path d="M164.499,39.829c-0.21-0.304-0.359-0.522-0.499-0.866c-0.577-1.403-0.577-2.315-0.577-2.729
		c0-0.764,0.086-1.287,0.343-2.089c0.265-0.827,0.452-1.1,0.733-1.505h0.562c-0.335,0.6-0.936,1.7-0.936,3.594
		c0,1.879,0.592,2.963,0.936,3.595H164.499z"/>
	<path d="M166.541,32.64l-0.117,2.339h-0.437l-0.117-2.339H166.541z M167.89,32.64l-0.117,2.339h-0.437l-0.117-2.339H167.89z"/>
	<path d="M173.409,33.56c-0.218,1.287-0.616,2.448-1.084,3.376c-0.476,0.952-0.951,1.466-1.162,1.692
		c-0.18-0.141-0.476-0.281-0.64-0.351c1.458-1.497,2.012-3.478,2.214-5.107l0.687,0.156c0.101,0.023,0.148,0.047,0.148,0.109
		C173.573,33.482,173.542,33.537,173.409,33.56z M177.207,38.488c-0.219-1.021-0.718-3.057-2.324-5.053l0.538-0.397
		c1.497,1.887,2.121,3.641,2.456,5.068C177.651,38.199,177.425,38.332,177.207,38.488z"/>
	<path d="M180.004,38.223v0.414h-0.702v-5.31h5.474v5.31h-0.702v-0.414H180.004z M184.073,37.591v-3.634h-4.069v3.634H184.073z"/>
	<path d="M186.528,36.165v-0.687h6.635v0.687H186.528z"/>
	<path d="M196.856,32.64l-0.116,2.339h-0.437l-0.117-2.339H196.856z M198.206,32.64l-0.117,2.339h-0.437l-0.116-2.339H198.206z"/>
	<path d="M199.024,39.829c0.342-0.632,0.928-1.715,0.928-3.595c0-1.895-0.602-2.994-0.928-3.594h0.561
		c0.273,0.405,0.469,0.678,0.726,1.505c0.257,0.803,0.351,1.325,0.351,2.089c0,0.414-0.008,1.326-0.576,2.729
		c-0.141,0.343-0.297,0.562-0.5,0.866H199.024z"/>
	<path d="M205.322,35.167h-0.811v-0.866h0.811V35.167z M205.322,38.776c0,0.21,0,0.686-0.811,0.772v-0.304
		c0.39-0.07,0.39-0.273,0.39-0.46h-0.39v-0.866h0.811V38.776z"/>
	<path d="M117.524,50.055c-0.733,0.062-0.663,0.671-0.655,0.764l0.14,1.279c0.008,0.055,0.016,0.156,0.016,0.257
		c0,0.281-0.156,0.842-1.061,1.115l-0.273-0.375c0.289-0.132,0.764-0.358,0.764-0.803c0-0.055-0.008-0.219-0.016-0.281l-0.132-1.186
		c-0.078-0.725,0.358-0.975,0.515-1.037c-0.156-0.062-0.593-0.304-0.515-1.029l0.132-1.193c0.008-0.039,0.016-0.203,0.016-0.272
		c0-0.453-0.46-0.671-0.764-0.811l0.273-0.375c1.061,0.32,1.061,1.037,1.061,1.1c0,0.023-0.008,0.226-0.016,0.273l-0.14,1.279
		c-0.055,0.468,0.21,0.725,0.655,0.764V50.055z"/>
	<path d="M116.682,59.923v3.945c0,1.692,1.552,1.692,1.762,1.692c0.281,0,1.747-0.062,1.747-1.692v-3.945h0.772v3.859
		c0,1.169-0.569,2.456-2.534,2.456c-1.739,0-2.511-1.052-2.511-2.456v-3.859H116.682z"/>
	<path d="M122.895,61.584l0.016,0.601c0.195-0.281,0.538-0.764,1.396-0.764c1.037,0,1.856,0.85,1.856,2.401
		c0,1.715-0.959,2.417-1.872,2.417c-0.881,0-1.255-0.569-1.38-0.764v1.638h-0.709v-5.528H122.895z M122.911,63.83
		c0,1.599,0.865,1.809,1.255,1.809c0.289,0,1.255-0.117,1.255-1.809c0-1.614-0.866-1.817-1.255-1.817
		C123.854,62.013,122.911,62.146,122.911,63.83z"/>
	<path d="M130.847,59.923v6.144h-0.694l-0.008-0.601c-0.203,0.281-0.538,0.772-1.403,0.772c-1.029,0-1.855-0.85-1.855-2.401
		c0-1.723,0.967-2.417,1.871-2.417c0.889,0,1.255,0.561,1.388,0.764v-2.261H130.847z M127.627,63.83
		c0,1.622,0.889,1.809,1.255,1.809c0.343,0,1.263-0.164,1.263-1.809c0-1.591-0.85-1.817-1.263-1.817
		C128.57,62.013,127.627,62.153,127.627,63.83z"/>
	<path d="M132.062,62.878c0.031-1.014,0.913-1.458,1.872-1.458c0.624,0,1.833,0.226,1.833,1.481v2.409
		c0,0.179,0.046,0.522,0.195,0.655v0.102h-0.764c-0.117-0.179-0.133-0.46-0.133-0.554c-0.429,0.468-1.021,0.725-1.645,0.725
		c-0.709,0-1.614-0.351-1.614-1.38c0-1.068,0.92-1.208,2.417-1.45c0.554-0.086,0.85-0.133,0.85-0.577
		c0-0.179-0.109-0.819-1.138-0.819c-0.647,0-1.13,0.25-1.169,0.866H132.062z M135.064,63.744c-0.218,0.125-0.288,0.133-0.896,0.226
		c-1.31,0.195-1.622,0.359-1.622,0.874c0,0.328,0.226,0.795,0.982,0.795c0.912,0,1.536-0.663,1.536-1.068V63.744z"/>
	<path d="M138.034,60.336v1.248h0.975v0.569h-0.975v2.979c0,0.452,0.351,0.483,0.741,0.483h0.234v0.608
		c-0.085,0.008-0.179,0.016-0.358,0.016c-0.46,0-1.326,0-1.326-1.091v-2.994h-0.741v-0.569h0.741v-1.248H138.034z"/>
	<path d="M143.717,64.68c-0.109,0.444-0.382,1.559-1.988,1.559c-1.941,0-2.136-1.762-2.136-2.417c0-1.326,0.663-2.401,2.074-2.401
		c1.396,0,2.105,1.076,2.113,2.573h-3.454c0.046,0.975,0.405,1.646,1.396,1.646c0.203,0,1.092,0,1.248-0.959H143.717z
		 M143.039,63.432c-0.133-0.889-0.562-1.419-1.357-1.419c-0.788,0-1.224,0.53-1.341,1.419H143.039z"/>
	<path d="M152.043,60.602c-0.32,0.819-0.67,1.629-1.193,2.433c0.117,0.102,1.006,0.936,1.396,1.544
		c-0.187,0.164-0.351,0.328-0.499,0.538c-0.421-0.663-1.169-1.412-1.279-1.521c-0.85,1.13-1.965,2.027-3.228,2.643
		c-0.109-0.171-0.296-0.335-0.515-0.515c1.131-0.53,2.152-1.169,3.236-2.604c-0.148-0.133-0.881-0.788-1.817-1.38l0.39-0.53
		c0.546,0.367,1.232,0.866,1.809,1.365c0.234-0.382,0.756-1.271,1.107-2.55l0.709,0.328c0.07,0.031,0.109,0.062,0.109,0.109
		C152.269,60.539,152.168,60.586,152.043,60.602z"/>
	<path d="M155.877,62.785c-0.257-0.585-0.694-1.388-1.169-1.957l0.569-0.374c0.429,0.506,0.959,1.38,1.186,1.965
		C156.236,62.512,156.057,62.637,155.877,62.785z M160.665,60.313c-0.507,3.135-1.373,4.725-4.406,6.082
		c-0.125-0.234-0.28-0.414-0.46-0.585c1.528-0.601,2.519-1.31,3.143-2.316c0.515-0.834,0.928-2.027,1.006-3.509l0.725,0.125
		c0.078,0.016,0.164,0.047,0.164,0.101C160.836,60.297,160.728,60.313,160.665,60.313z"/>
	<path d="M163.626,63.448c-0.242-0.687-0.413-1.014-0.772-1.606l0.546-0.234c0.296,0.437,0.593,1.045,0.78,1.59
		C163.977,63.268,163.813,63.338,163.626,63.448z M168.133,61.732c-0.577,2.347-1.653,3.712-3.906,4.601
		c-0.141-0.21-0.21-0.304-0.39-0.507c0.952-0.328,3.228-1.201,3.712-4.515l0.6,0.187c0.102,0.031,0.141,0.062,0.141,0.117
		C168.289,61.693,168.219,61.716,168.133,61.732z M165.295,63.042c-0.18-0.577-0.382-1.053-0.726-1.614l0.554-0.227
		c0.328,0.53,0.554,1.014,0.733,1.614C165.794,62.832,165.521,62.91,165.295,63.042z"/>
	<path d="M175.78,64.329c-0.749-0.725-1.684-1.396-2.885-1.98v4.101h-0.702v-6.745l0.709,0.055c0.102,0.008,0.148,0.031,0.148,0.094
		c0,0.086-0.102,0.109-0.156,0.117v2.223l0.304-0.421c0.686,0.335,1.879,0.959,2.994,1.988
		C175.999,63.978,175.827,64.243,175.78,64.329z M175.819,61.686c-0.226-0.304-0.507-0.569-0.819-0.811l0.382-0.312
		c0.304,0.21,0.671,0.569,0.842,0.749C176.084,61.42,175.975,61.521,175.819,61.686z M176.498,61.077
		c-0.39-0.437-0.686-0.663-0.834-0.772l0.367-0.312c0.164,0.117,0.569,0.46,0.818,0.749
		C176.716,60.835,176.599,60.953,176.498,61.077z"/>
	<path d="M179.855,63.167c0.726-0.062,0.655-0.671,0.647-0.764l-0.141-1.279c-0.008-0.055-0.016-0.171-0.016-0.25
		c0-0.289,0.164-0.85,1.068-1.123l0.266,0.375c-0.289,0.14-0.765,0.358-0.765,0.811c0,0.054,0.008,0.21,0.016,0.272l0.141,1.193
		c0.085,0.725-0.366,0.967-0.515,1.029c0.148,0.062,0.6,0.312,0.515,1.037l-0.141,1.186c-0.008,0.078-0.016,0.203-0.016,0.273
		c0,0.452,0.468,0.67,0.765,0.811l-0.273,0.375c-1.061-0.32-1.061-1.037-1.061-1.092s0.008-0.234,0.016-0.281l0.141-1.279
		c0.055-0.468-0.211-0.725-0.647-0.764V63.167z"/>
	<path d="M117.524,77.338c-0.733,0.062-0.663,0.671-0.655,0.764l0.14,1.279c0.008,0.055,0.016,0.156,0.016,0.257
		c0,0.281-0.156,0.842-1.061,1.115l-0.273-0.375c0.289-0.132,0.764-0.358,0.764-0.803c0-0.055-0.008-0.219-0.016-0.281l-0.132-1.186
		c-0.078-0.725,0.358-0.975,0.515-1.037c-0.156-0.062-0.593-0.304-0.515-1.029l0.132-1.193c0.008-0.039,0.016-0.203,0.016-0.272
		c0-0.453-0.46-0.671-0.764-0.811l0.273-0.375c1.061,0.32,1.061,1.037,1.061,1.1c0,0.023-0.008,0.226-0.016,0.273l-0.14,1.279
		c-0.055,0.468,0.21,0.725,0.655,0.764V77.338z"/>
	<path d="M112.333,90.981c-0.733,0.062-0.663,0.67-0.655,0.764l0.14,1.279c0.008,0.055,0.016,0.156,0.016,0.257
		c0,0.281-0.156,0.842-1.061,1.115l-0.273-0.375c0.289-0.132,0.764-0.358,0.764-0.803c0-0.055-0.008-0.219-0.016-0.281l-0.132-1.186
		c-0.078-0.725,0.358-0.975,0.515-1.037c-0.156-0.062-0.593-0.304-0.515-1.029l0.132-1.193c0.008-0.039,0.016-0.203,0.016-0.272
		c0-0.453-0.46-0.671-0.764-0.811l0.273-0.375c1.061,0.32,1.061,1.037,1.061,1.1c0,0.023-0.008,0.226-0.016,0.273l-0.14,1.279
		c-0.055,0.468,0.21,0.725,0.655,0.764V90.981z"/>
</g>
<rect x="245.571" y="23.194" fill="#DFF2FC" stroke="#00A0E9" stroke-miterlimit="10" width="106.538" height="66.056"/>
<rect x="249.575" y="37.347" fill="#FEEFE7" stroke="#EF845D" stroke-miterlimit="10" width="99.733" height="38.541"/>
<g>
	<path d="M252.855,26.078c1.528,0,2.706,1.029,2.706,3.025c0,2.542-1.615,3.119-2.706,3.119h-2.105v-6.144H252.855z M251.522,26.748
		v4.803h1.325c1.271,0,1.934-1.068,1.934-2.425c0-1.146-0.554-2.378-1.934-2.378H251.522z"/>
	<path d="M260.472,30.834c-0.109,0.444-0.382,1.559-1.988,1.559c-1.941,0-2.137-1.762-2.137-2.417c0-1.326,0.663-2.401,2.074-2.401
		c1.396,0,2.105,1.076,2.113,2.573h-3.454c0.046,0.975,0.405,1.646,1.396,1.646c0.203,0,1.092,0,1.248-0.959H260.472z
		 M259.794,29.586c-0.133-0.889-0.562-1.419-1.357-1.419c-0.787,0-1.225,0.53-1.341,1.419H259.794z"/>
	<path d="M262.194,26.078v2.261c0.124-0.203,0.498-0.764,1.379-0.764c0.913,0,1.872,0.694,1.872,2.417
		c0,1.552-0.819,2.401-1.856,2.401c-0.857,0-1.2-0.491-1.395-0.772l-0.016,0.601h-0.694v-6.144H262.194z M262.194,29.984
		c0,1.591,0.857,1.809,1.255,1.809c0.288,0,1.255-0.117,1.255-1.809c0-1.614-0.873-1.817-1.255-1.817
		C263.146,28.167,262.194,28.3,262.194,29.984z"/>
	<path d="M267.104,27.738v2.924c0,0.188,0.078,1.131,1.092,1.131c0.748,0,1.232-0.655,1.232-1.287v-2.768h0.701v4.483h-0.693
		l-0.008-0.655c-0.156,0.226-0.562,0.826-1.428,0.826c-0.764,0-1.605-0.538-1.605-1.684v-2.971H267.104z"/>
	<path d="M275.407,28.198c-0.062-0.023-0.14-0.047-0.257-0.047c-0.257,0-0.405,0.125-0.483,0.195
		c0.047,0.117,0.102,0.242,0.102,0.452c0,0.764-0.663,1.232-1.676,1.232c-0.242,0-0.609-0.055-0.772-0.086
		c-0.094,0.031-0.351,0.148-0.351,0.328c0,0.21,0.226,0.273,1.169,0.358c0.937,0.086,1.411,0.141,1.731,0.382
		c0.28,0.203,0.452,0.507,0.452,0.896c0,1.357-1.919,1.357-2.191,1.357c-0.943,0-2.104-0.218-2.104-1.263
		c0-0.102,0-0.795,0.74-1.061c-0.211-0.093-0.507-0.234-0.507-0.562c0-0.187,0.093-0.405,0.608-0.616
		c-0.18-0.117-0.546-0.367-0.546-0.975c0-0.756,0.655-1.216,1.724-1.216c0.803,0,1.099,0.21,1.324,0.366
		c0.078-0.101,0.312-0.413,0.812-0.413c0.109,0,0.155,0.016,0.226,0.039V28.198z M271.743,31.91c0,0.499,0.413,0.795,1.442,0.795
		c0.53,0,1.38-0.094,1.38-0.764c0-0.452-0.351-0.577-0.444-0.608c-0.257-0.078-1.286-0.172-1.622-0.203
		C272.148,31.239,271.743,31.372,271.743,31.91z M272.071,28.799c0,0.686,0.85,0.702,0.975,0.709c0.101,0,0.982-0.008,0.982-0.709
		c0-0.437-0.359-0.702-0.975-0.702C272.39,28.097,272.071,28.385,272.071,28.799z"/>
	<path d="M284.24,27.738c-0.741,1.747-1.677,3.969-4.538,5.115c-0.094-0.125-0.18-0.226-0.514-0.506
		c1.355-0.546,3.266-1.536,4.279-4.71h-2.588c-0.74,1.154-1.653,1.942-1.988,2.238c-0.141-0.148-0.344-0.343-0.522-0.483
		c1.224-0.928,2.183-2.238,2.706-3.618l0.654,0.281c0.031,0.016,0.109,0.047,0.109,0.109c0,0.086-0.133,0.109-0.188,0.109
		c-0.195,0.39-0.288,0.554-0.397,0.741h2.331c0.242,0,0.391-0.062,0.516-0.117l0.389,0.367
		C284.342,27.504,284.295,27.613,284.24,27.738z"/>
	<path d="M291.396,28.066c0.233,0,0.437-0.016,0.655-0.078l0.443,0.32c-0.101,0.171-0.467,0.951-0.545,1.107
		c-0.834,1.669-1.661,2.597-3.898,3.361c-0.188-0.234-0.211-0.273-0.484-0.562c1.896-0.515,3.182-1.403,3.938-3.524h-5.316v-0.624
		H291.396z M291.583,26.187v0.624h-4.475v-0.624H291.583z"/>
	<path d="M299.956,32.362c-0.67-0.975-1.489-1.84-2.448-2.534c-0.624,0.834-1.817,1.973-3.36,2.635
		c-0.133-0.273-0.227-0.413-0.438-0.601c0.718-0.257,3.346-1.325,4.492-4.857h-3.813v-0.64h3.922c0.125,0,0.405-0.015,0.53-0.054
		l0.383,0.358c-0.164,0.218-0.273,0.476-0.289,0.515c-0.305,0.741-0.632,1.474-1.076,2.137c0.74,0.522,1.832,1.458,2.644,2.487
		C300.229,32.05,300.19,32.082,299.956,32.362z"/>
	<path d="M304.194,29.321c0.727-0.062,0.656-0.671,0.648-0.764l-0.141-1.279c-0.008-0.055-0.016-0.172-0.016-0.25
		c0-0.289,0.164-0.85,1.068-1.123l0.265,0.375c-0.288,0.14-0.765,0.358-0.765,0.811c0,0.054,0.008,0.21,0.016,0.272l0.141,1.193
		c0.086,0.725-0.366,0.967-0.514,1.029c0.147,0.062,0.6,0.312,0.514,1.037l-0.141,1.186c-0.008,0.078-0.016,0.203-0.016,0.273
		c0,0.452,0.469,0.67,0.765,0.811l-0.272,0.375c-1.061-0.32-1.061-1.037-1.061-1.092s0.008-0.234,0.016-0.281l0.141-1.279
		c0.055-0.468-0.211-0.725-0.648-0.764V29.321z"/>
	<path d="M256.698,39.719v5.474h3.104v0.67h-3.876v-6.144H256.698z"/>
	<path d="M264.72,43.625c0,1.809-1.123,2.409-2.09,2.409c-1.138,0-2.097-0.772-2.097-2.37c0-2.121,1.403-2.448,2.097-2.448
		C263.589,41.216,264.72,41.801,264.72,43.625z M261.274,43.625c0,0.749,0.35,1.809,1.355,1.809s1.35-1.076,1.35-1.809
		c0-0.741-0.344-1.817-1.35-1.817S261.274,42.877,261.274,43.625z"/>
	<path d="M269.771,41.84c-0.062-0.023-0.14-0.047-0.257-0.047c-0.258,0-0.406,0.125-0.484,0.195
		c0.047,0.117,0.102,0.242,0.102,0.452c0,0.764-0.662,1.232-1.676,1.232c-0.242,0-0.608-0.055-0.771-0.086
		c-0.094,0.031-0.352,0.148-0.352,0.328c0,0.21,0.227,0.273,1.17,0.358c0.936,0.086,1.411,0.141,1.73,0.382
		c0.281,0.203,0.453,0.507,0.453,0.896c0,1.357-1.919,1.357-2.191,1.357c-0.943,0-2.105-0.218-2.105-1.263
		c0-0.102,0-0.795,0.74-1.061c-0.21-0.093-0.506-0.234-0.506-0.562c0-0.187,0.093-0.405,0.607-0.616
		c-0.18-0.117-0.545-0.367-0.545-0.975c0-0.756,0.654-1.216,1.723-1.216c0.803,0,1.1,0.21,1.325,0.366
		c0.078-0.101,0.312-0.413,0.812-0.413c0.109,0,0.156,0.016,0.226,0.039V41.84z M266.106,45.551c0,0.499,0.414,0.795,1.443,0.795
		c0.529,0,1.38-0.094,1.38-0.764c0-0.452-0.351-0.577-0.444-0.608c-0.258-0.078-1.287-0.172-1.622-0.203
		C266.513,44.881,266.106,45.013,266.106,45.551z M266.435,42.44c0,0.686,0.85,0.702,0.975,0.709c0.102,0,0.982-0.008,0.982-0.709
		c0-0.437-0.359-0.702-0.975-0.702C266.754,41.739,266.435,42.027,266.435,42.44z"/>
	<path d="M277.895,40.397c-0.319,0.819-0.671,1.629-1.192,2.433c0.116,0.102,1.006,0.936,1.395,1.544
		c-0.187,0.164-0.35,0.328-0.498,0.538c-0.422-0.663-1.17-1.412-1.279-1.521c-0.85,1.13-1.965,2.027-3.229,2.643
		c-0.108-0.171-0.295-0.335-0.514-0.515c1.131-0.53,2.152-1.169,3.236-2.604c-0.148-0.133-0.882-0.788-1.817-1.38l0.39-0.53
		c0.546,0.367,1.232,0.866,1.809,1.365c0.234-0.382,0.757-1.271,1.107-2.55l0.71,0.328c0.069,0.031,0.108,0.062,0.108,0.109
		C278.12,40.335,278.02,40.382,277.895,40.397z"/>
	<path d="M281.729,42.581c-0.258-0.584-0.694-1.388-1.17-1.957l0.568-0.375c0.43,0.507,0.96,1.38,1.186,1.965
		C282.088,42.308,281.908,42.433,281.729,42.581z M286.517,40.109c-0.507,3.134-1.373,4.725-4.406,6.082
		c-0.124-0.234-0.279-0.414-0.459-0.585c1.527-0.601,2.518-1.31,3.143-2.316c0.514-0.834,0.928-2.027,1.006-3.509l0.725,0.125
		c0.078,0.016,0.164,0.047,0.164,0.101C286.688,40.093,286.579,40.109,286.517,40.109z"/>
	<path d="M289.478,43.243c-0.242-0.686-0.413-1.013-0.771-1.606l0.545-0.234c0.297,0.437,0.594,1.045,0.78,1.591
		C289.829,43.064,289.665,43.134,289.478,43.243z M293.984,41.528c-0.577,2.347-1.653,3.711-3.906,4.601
		c-0.141-0.21-0.21-0.304-0.39-0.507c0.951-0.328,3.228-1.201,3.711-4.515L294,41.294c0.102,0.031,0.141,0.062,0.141,0.117
		C294.141,41.489,294.07,41.512,293.984,41.528z M291.146,42.838c-0.18-0.577-0.382-1.053-0.726-1.614l0.554-0.226
		c0.327,0.53,0.554,1.013,0.733,1.614C291.646,42.627,291.372,42.706,291.146,42.838z"/>
	<path d="M301.632,44.125c-0.748-0.725-1.684-1.396-2.885-1.98v4.101h-0.702v-6.744l0.71,0.054c0.102,0.008,0.148,0.031,0.148,0.094
		c0,0.086-0.102,0.109-0.156,0.117v2.223l0.304-0.421c0.687,0.335,1.88,0.959,2.994,1.988
		C301.851,43.773,301.679,44.039,301.632,44.125z M301.671,41.481c-0.227-0.304-0.507-0.569-0.818-0.811l0.381-0.312
		c0.305,0.21,0.672,0.569,0.843,0.749C301.937,41.216,301.827,41.317,301.671,41.481z M302.349,40.873
		c-0.39-0.437-0.686-0.663-0.834-0.772l0.367-0.312c0.163,0.117,0.568,0.46,0.818,0.749
		C302.567,40.631,302.45,40.748,302.349,40.873z"/>
	<path d="M305.707,42.963c0.726-0.062,0.655-0.671,0.647-0.764l-0.141-1.279c-0.008-0.055-0.016-0.172-0.016-0.25
		c0-0.289,0.164-0.85,1.068-1.123l0.266,0.375c-0.289,0.14-0.765,0.358-0.765,0.811c0,0.054,0.008,0.21,0.016,0.272l0.141,1.193
		c0.085,0.725-0.366,0.967-0.515,1.029c0.148,0.062,0.6,0.312,0.515,1.037l-0.141,1.186c-0.008,0.078-0.016,0.203-0.016,0.273
		c0,0.452,0.468,0.67,0.765,0.811l-0.273,0.375c-1.061-0.32-1.061-1.037-1.061-1.092s0.008-0.234,0.016-0.281l0.141-1.279
		c0.055-0.468-0.211-0.725-0.647-0.764V42.963z"/>
	<path d="M261.562,58.92v-0.647h4.818v-3.446h-4.818V54.18h5.528v5.123h-0.71V58.92H261.562z"/>
	<path d="M271.384,55.412c-1.091-0.967-1.902-1.341-2.214-1.489l0.405-0.577c0.585,0.296,1.381,0.733,2.23,1.474
		C271.579,55.092,271.446,55.303,271.384,55.412z M269.864,59.623c-0.008,0.132-0.023,0.179-0.109,0.179
		c-0.055,0-0.102-0.055-0.125-0.094l-0.421-0.702c2.487-0.538,4.64-2.09,5.957-4.281c0.156,0.257,0.265,0.413,0.429,0.608
		C273.849,58.156,271.135,59.17,269.864,59.623z"/>
	<path d="M278.034,56.223c-0.258-0.585-0.694-1.388-1.17-1.957l0.568-0.374c0.43,0.506,0.96,1.38,1.186,1.965
		C278.393,55.95,278.213,56.075,278.034,56.223z M282.821,53.751c-0.507,3.135-1.373,4.725-4.406,6.082
		c-0.124-0.234-0.279-0.414-0.459-0.585c1.527-0.601,2.518-1.31,3.143-2.316c0.514-0.834,0.928-2.027,1.006-3.509l0.725,0.125
		c0.078,0.016,0.164,0.047,0.164,0.101C282.993,53.735,282.884,53.751,282.821,53.751z"/>
	<path d="M284.434,56.886v-0.687h6.636v0.687H284.434z"/>
	<path d="M294.443,53.86v1.918c0,1.287-0.226,2.519-1.949,3.649c-0.102-0.14-0.188-0.242-0.554-0.491
		c1.715-0.959,1.793-2.113,1.793-3.087v-2.285l0.687,0.047c0.078,0.008,0.179,0.016,0.179,0.101
		C294.599,53.782,294.521,53.829,294.443,53.86z M296.471,59.146c-0.28,0.195-0.312,0.219-0.437,0.351l-0.5-0.351
		c0.008-0.156,0.023-0.39,0.023-0.608v-5.037l0.695,0.031c0.085,0,0.155,0.008,0.155,0.086c0,0.078-0.07,0.101-0.155,0.14v4.67
		c1.013-0.592,1.988-1.474,2.635-2.448c0.188,0.335,0.242,0.444,0.374,0.593C298.677,57.4,297.78,58.25,296.471,59.146z"/>
	<path d="M301.381,59.599l-0.616,0.187c-0.188-0.522-0.459-1.341-0.459-2.823c0-1.364,0.187-2.292,0.49-3.774l0.702,0.265
		c0.124,0.047,0.163,0.078,0.163,0.117c0,0.085-0.094,0.093-0.179,0.109c-0.358,1.107-0.53,2.261-0.53,3.423
		c0,0.6,0.047,0.896,0.094,1.201c0.109-0.351,0.351-0.975,0.499-1.255c0.101,0.156,0.187,0.265,0.382,0.397
		C301.771,57.782,301.342,58.741,301.381,59.599z M306.604,59.061c-0.521,0.085-1.271,0.117-1.809,0.117
		c-0.967,0-2.191-0.093-2.191-1.099c0-0.483,0.195-0.913,0.32-1.162l0.608,0.125c-0.102,0.171-0.296,0.507-0.296,0.881
		c0,0.499,0.568,0.624,1.512,0.624c0.741,0,1.342-0.078,1.902-0.218C306.612,58.609,306.604,58.772,306.604,59.061z M303.681,54.788
		c-0.358,0-0.592-0.016-0.779-0.023V54.11c0.203,0.023,0.421,0.039,0.787,0.039c0.586,0,1.584-0.023,2.465-0.25
		c0.008,0.062,0.062,0.468,0.086,0.671C305.132,54.788,303.923,54.788,303.681,54.788z"/>
	<path d="M307.539,54.679v-0.6h3.235v-1.154l0.679,0.039c0.039,0,0.171,0.016,0.171,0.102c0,0.062-0.054,0.078-0.179,0.125v0.889
		h3.212v0.6h-1.286c-0.632,2.059-1.411,2.901-1.755,3.259c0.586,0.491,1.584,1.123,3.166,1.521c-0.241,0.25-0.319,0.359-0.443,0.632
		c-0.78-0.25-2.004-0.709-3.182-1.7c-0.562,0.499-1.661,1.279-3.268,1.778c-0.102-0.226-0.296-0.429-0.476-0.577
		c1.56-0.421,2.659-1.1,3.274-1.646c-1.076-1.177-1.613-2.37-1.918-3.267H307.539z M309.48,54.679
		c0.413,1.216,1.146,2.246,1.669,2.815c0.662-0.749,1.146-1.661,1.504-2.815H309.48z"/>
	<path d="M319.319,57.72v1.466c0,0.702-0.227,0.905-1.561,0.943c-0.039-0.242-0.14-0.491-0.257-0.702
		c0.249,0.047,0.507,0.055,0.632,0.055c0.452,0,0.521-0.094,0.521-0.405V57.72h-3.204v-0.585h3.204v-0.803l0.391,0.078
		c0.141-0.085,0.476-0.312,0.865-0.709h-3.057v-0.592h3.805l0.383,0.366c-0.601,0.593-1.271,1.115-1.723,1.427v0.234h3.071v0.585
		H319.319z M321.502,55.326v-1.029h-5.076v1.045h-0.671v-1.599h2.87v-0.827l0.671,0.031c0.14,0.008,0.202,0.031,0.202,0.094
		c0,0.086-0.086,0.109-0.202,0.148v0.554h2.861v1.583H321.502z"/>
	<path d="M329.827,56.948c0.055,0.047,0.086,0.102,0.086,0.125c0,0.047-0.055,0.078-0.117,0.078c-0.055,0-0.094-0.008-0.155-0.023
		c-0.413,0.382-1.006,0.818-1.349,1.037c0.296,0.265,0.92,0.803,1.895,1.302c-0.266,0.171-0.352,0.242-0.546,0.468
		c-1.888-1.099-2.722-2.433-3.072-3.236c-0.358,0.375-0.78,0.694-0.858,0.749v1.567c0.602-0.132,1.209-0.281,1.864-0.468
		c-0.086,0.195-0.133,0.421-0.14,0.592c-0.555,0.18-1.74,0.53-3.416,0.858c-0.008,0.047-0.031,0.195-0.133,0.195
		c-0.055,0-0.102-0.062-0.133-0.156l-0.194-0.624c0.296-0.039,0.967-0.164,1.505-0.265v-1.263c-0.787,0.46-1.248,0.663-1.676,0.842
		c-0.125-0.234-0.234-0.366-0.422-0.554c1.123-0.343,2.184-0.873,3.033-1.684h-2.885V55.95h3.26v-0.631h-2.293v-0.507h2.293V54.25
		h-3.033v-0.53h3.033v-0.788l0.662,0.047c0.117,0.008,0.188,0.055,0.188,0.102c0,0.055-0.102,0.093-0.195,0.132v0.507h3.088v0.53
		h-3.088v0.562h2.293v0.507h-2.293v0.631h3.236v0.538h-3.143c0.156,0.413,0.452,0.881,0.771,1.263
		c0.344-0.242,0.92-0.694,1.412-1.216L329.827,56.948z"/>
	<path d="M333.101,57.065c-0.444,0.99-1.053,1.871-1.652,2.487c-0.109-0.094-0.336-0.265-0.617-0.367
		c0.578-0.569,1.178-1.208,1.778-2.596l0.616,0.218c0.062,0.023,0.125,0.055,0.125,0.132
		C333.351,57.034,333.249,57.049,333.101,57.065z M334.87,55.934v3.33c0,0.624-0.171,0.896-1.668,0.873
		c-0.016-0.28-0.07-0.468-0.227-0.725c0.148,0.016,0.398,0.047,0.671,0.047c0.515,0,0.554-0.078,0.554-0.562v-2.963h-3.268v-0.608
		h7.174v0.608H334.87z M331.697,53.915v-0.624h5.646v0.624H331.697z M337.437,59.474c-0.188-0.397-0.757-1.411-1.841-2.565
		l0.538-0.358c0.585,0.631,1.45,1.747,1.902,2.519C337.763,59.201,337.654,59.279,337.437,59.474z"/>
	<path d="M341.776,55.888h-0.811v-0.866h0.811V55.888z M341.776,59.498c0,0.21,0,0.686-0.811,0.772v-0.304
		c0.39-0.07,0.39-0.273,0.39-0.46h-0.39V58.64h0.811V59.498z"/>
	<path d="M257.524,70.776c-0.732,0.062-0.662,0.671-0.654,0.764l0.14,1.279c0.008,0.055,0.016,0.156,0.016,0.257
		c0,0.281-0.155,0.842-1.061,1.115l-0.272-0.375c0.288-0.132,0.764-0.358,0.764-0.803c0-0.055-0.008-0.219-0.016-0.281l-0.133-1.186
		c-0.078-0.725,0.359-0.975,0.516-1.037c-0.156-0.062-0.594-0.304-0.516-1.029l0.133-1.193c0.008-0.039,0.016-0.203,0.016-0.272
		c0-0.453-0.46-0.671-0.764-0.811l0.272-0.375c1.061,0.32,1.061,1.037,1.061,1.1c0,0.023-0.008,0.226-0.016,0.273l-0.14,1.279
		c-0.055,0.468,0.21,0.725,0.654,0.764V70.776z"/>
	<path d="M254.929,84.418c-0.732,0.062-0.662,0.671-0.654,0.764l0.14,1.279c0.008,0.055,0.016,0.156,0.016,0.257
		c0,0.281-0.155,0.842-1.061,1.115l-0.272-0.375c0.288-0.132,0.764-0.358,0.764-0.803c0-0.055-0.008-0.219-0.016-0.281l-0.133-1.186
		c-0.078-0.725,0.359-0.975,0.516-1.037c-0.156-0.062-0.594-0.304-0.516-1.029l0.133-1.193c0.008-0.039,0.016-0.203,0.016-0.272
		c0-0.453-0.46-0.671-0.764-0.811l0.272-0.375c1.061,0.32,1.061,1.037,1.061,1.1c0,0.023-0.008,0.226-0.016,0.273l-0.14,1.279
		c-0.055,0.468,0.21,0.725,0.654,0.764V84.418z"/>
</g>
<g>
	<g>
		<path fill="none" stroke="#009944" stroke-miterlimit="10" d="M204.442,34.002c11.432-5.58,29.069-3.898,38.902-0.218"/>
		<g>
			<polygon fill="#009944" points="239.607,37.622 249.575,37.347 244.354,28.852 			"/>
		</g>
	</g>
</g>
<ellipse fill="#E6E6E6" stroke="#000000" stroke-miterlimit="10" cx="36.426" cy="31.035" rx="33.984" ry="28.034"/>
<g>
	<path d="M22.194,22.523v3.945c0,1.692,1.552,1.692,1.762,1.692c0.281,0,1.747-0.062,1.747-1.692v-3.945h0.772v3.859
		c0,1.169-0.569,2.456-2.534,2.456c-1.739,0-2.511-1.052-2.511-2.456v-3.859H22.194z"/>
	<path d="M28.407,24.184l0.016,0.655c0.156-0.226,0.554-0.818,1.419-0.818c0.764,0,1.606,0.53,1.606,1.676v2.971h-0.702v-2.924
		c0-0.188-0.078-1.131-1.099-1.131c-0.749,0-1.224,0.655-1.224,1.287v2.768h-0.709v-4.483H28.407z"/>
	<path d="M33.458,23.396H32.64v-0.873h0.818V23.396z M33.404,28.667h-0.71v-4.483h0.71V28.667z"/>
	<path d="M35.743,22.936v1.248h0.975v0.569h-0.975v2.979c0,0.452,0.351,0.483,0.741,0.483h0.234v0.608
		c-0.085,0.008-0.179,0.016-0.358,0.016c-0.46,0-1.326,0-1.326-1.091v-2.994h-0.741v-0.569h0.741v-1.248H35.743z"/>
	<path d="M37.957,24.184l1.419,3.314l1.466-3.314h0.819l-2.214,4.749c-0.047,0.109-0.367,0.78-1.388,0.78
		c-0.242,0-0.335-0.016-0.398-0.031v-0.577h0.343c0.281,0,0.702-0.008,0.959-0.873l-1.825-4.047H37.957z"/>
	<path d="M50.064,27.856c-0.624,0.655-1.489,0.936-1.864,1.061c-0.226-0.367-0.335-0.483-0.444-0.601
		c2.324-0.491,2.565-2.113,2.565-2.745c0-1.294-0.967-2.315-2.371-2.292c-0.101,1.146-0.296,2.3-0.85,3.594
		c-0.429,1.014-0.803,1.427-1.232,1.427c-0.577,0-1.466-0.904-1.466-2.183c0-1.622,1.442-3.454,3.54-3.454
		c1.669,0,3.049,1.115,3.049,2.893C50.992,26.359,50.695,27.193,50.064,27.856z M45.042,26.078c0,0.842,0.46,1.458,0.795,1.458
		c0.328,0,0.616-0.741,0.803-1.232c0.545-1.474,0.592-2.526,0.608-2.924C45.931,23.669,45.042,24.979,45.042,26.078z"/>
	<path d="M23.59,35.657c-0.795-0.608-1.762-0.99-1.996-1.084l0.39-0.554c0.546,0.203,1.489,0.671,2.027,1.053
		C23.777,35.306,23.637,35.563,23.59,35.657z M22.654,38.869c-0.008,0.078-0.023,0.187-0.125,0.187
		c-0.055,0-0.094-0.062-0.125-0.125l-0.319-0.608c2.347-0.803,4.39-2.324,5.739-4.405c0.148,0.21,0.281,0.39,0.452,0.561
		C26.351,37.356,23.388,38.596,22.654,38.869z M24.518,33.832c-0.741-0.546-1.505-0.857-2.098-1.076l0.39-0.522
		c0.647,0.227,1.388,0.538,2.121,1.021C24.783,33.411,24.62,33.645,24.518,33.832z"/>
	<path d="M35.354,38.729c-0.671-0.975-1.489-1.84-2.448-2.534c-0.624,0.834-1.817,1.973-3.361,2.635
		c-0.132-0.273-0.226-0.413-0.437-0.601c0.717-0.257,3.345-1.325,4.491-4.857h-3.813v-0.64h3.922c0.125,0,0.406-0.015,0.53-0.054
		l0.382,0.358c-0.164,0.218-0.273,0.476-0.289,0.515c-0.304,0.741-0.632,1.474-1.076,2.137c0.741,0.522,1.833,1.458,2.644,2.487
		C35.627,38.417,35.588,38.448,35.354,38.729z"/>
	<path d="M40.756,35.306c-0.016,0.842-0.062,2.877-2.674,3.727c-0.125-0.187-0.242-0.327-0.499-0.554
		c2.207-0.616,2.495-1.941,2.495-3.173h-3.095v-0.624h6.542v0.624H40.756z M38.074,33.208v-0.624h4.39v0.624H38.074z"/>
	<path d="M50.922,38.549c-0.094-0.226-0.242-0.616-0.499-1.091c-3.22,0.6-3.291,0.608-5.38,0.873
		c-0.031,0.094-0.062,0.133-0.125,0.133c-0.07,0-0.094-0.047-0.117-0.141l-0.148-0.647c0.21-0.008,0.375-0.016,0.834-0.055
		c0.663-1.271,1.544-3.501,1.949-5.318l0.702,0.195c0.102,0.031,0.148,0.055,0.148,0.109c0,0.109-0.117,0.14-0.187,0.148
		c-0.085,0.234-0.647,1.903-0.733,2.145c-0.055,0.148-0.67,1.778-1.123,2.643c1.255-0.148,2.511-0.328,3.875-0.608
		c-0.374-0.632-0.827-1.209-1.333-1.739l0.569-0.367c0.834,0.889,1.84,2.44,2.137,3.259C51.437,38.121,51.125,38.323,50.922,38.549z
		"/>
</g>
<g>
	<g>
		<path fill="none" stroke="#009944" stroke-miterlimit="10" d="M62.844,20.495c24.481-2.841,34.831-1.276,43.654,0.904"/>
		<g>
			<polygon fill="#009944" points="103.842,25.886 113.442,23.195 106.312,16.225 			"/>
		</g>
	</g>
</g>
<g>
	<g>
		<path fill="none" stroke="#009944" stroke-miterlimit="10" d="M61.109,37.322c11.235-1.302,28.446-0.208,44.412,17.461"/>
		<g>
			<polygon fill="#009944" points="100.699,56.931 110.071,60.334 108.333,50.515 			"/>
		</g>
	</g>
</g>
<g>
	<path d="M220.392,9.905c-0.233,0.133-0.615,0.188-1.341,0.172c-0.055-0.445-0.172-0.663-0.226-0.764
		c0.179,0.039,0.397,0.093,0.764,0.093c0.413,0,0.554-0.093,0.663-0.366c0.202-0.53,0.319-1.177,0.374-1.856h-2.276
		c-0.078,0.273-0.102,0.343-0.156,0.499c-0.289-0.109-0.577-0.132-0.679-0.14c0.366-0.85,0.585-2.051,0.64-2.776l0.655,0.187h1.793
		V3.901h-2.768V3.309h3.431v2.238H218.7c-0.078,0.507-0.141,0.788-0.195,1.029h2.815C221.305,6.81,221.188,9.469,220.392,9.905z
		 M223.761,3.254v6.846h-0.687V2.95l0.702,0.055c0.077,0.008,0.187,0.023,0.187,0.102C223.963,3.184,223.908,3.2,223.761,3.254z"/>
	<path d="M228.577,7.48c0.031,0.016,0.108,0.055,0.108,0.109c0,0.07-0.101,0.085-0.218,0.085c-0.148,0.476-0.319,0.78-0.585,1.115
		c0.18,0.132,0.491,0.358,0.733,0.6c-0.094,0.094-0.195,0.195-0.398,0.476c-0.358-0.351-0.623-0.554-0.748-0.647
		c-0.46,0.413-1.014,0.709-1.606,0.889c-0.086-0.203-0.226-0.367-0.358-0.499c0.312-0.07,0.881-0.219,1.505-0.718
		c-0.359-0.25-0.663-0.413-0.788-0.483c-0.085,0.109-0.132,0.172-0.249,0.32c-0.125-0.094-0.266-0.179-0.522-0.257
		c0.444-0.53,0.64-0.827,0.74-0.99h-0.951V6.95h1.271c0.21-0.374,0.335-0.686,0.358-0.741V5.227
		c-0.374,0.53-0.764,0.959-1.263,1.326c-0.07-0.102-0.234-0.273-0.468-0.39c0.787-0.476,1.278-1.068,1.458-1.294h-1.303V4.354h1.591
		V2.919l0.562,0.047c0.117,0.008,0.188,0.047,0.188,0.102c0,0.062-0.031,0.078-0.203,0.132v1.154h1.544v0.515h-1.311
		c0.195,0.226,0.491,0.577,1.092,0.967c-0.078,0.062-0.194,0.148-0.437,0.405c-0.335-0.289-0.577-0.554-0.889-0.982v1.053h-0.327
		l0.335,0.148c0.062,0.023,0.117,0.062,0.117,0.109c0,0.109-0.164,0.085-0.242,0.078c-0.094,0.188-0.109,0.219-0.148,0.304h1.872
		v0.53H228.577z M226.043,4.299c-0.203-0.429-0.375-0.717-0.577-1.006l0.476-0.265c0.288,0.359,0.476,0.686,0.632,1.029
		C226.44,4.097,226.214,4.182,226.043,4.299z M226.861,7.48c-0.086,0.133-0.141,0.226-0.327,0.499
		c0.272,0.141,0.654,0.359,0.889,0.507c0.249-0.304,0.429-0.631,0.538-1.006H226.861z M228.748,3.457
		c-0.288,0.515-0.46,0.741-0.554,0.866c-0.147-0.109-0.241-0.156-0.483-0.257c0.297-0.398,0.476-0.709,0.624-1.045l0.468,0.203
		c0.109,0.047,0.148,0.07,0.148,0.125C228.951,3.449,228.811,3.457,228.748,3.457z M232.008,10.093
		c-0.491-0.367-0.936-0.803-1.326-1.349c-0.584,0.756-1.302,1.224-1.543,1.38c-0.172-0.242-0.227-0.312-0.469-0.476
		c0.975-0.515,1.513-1.232,1.669-1.442c-0.421-0.764-0.601-1.396-0.725-2.089c-0.219,0.437-0.328,0.577-0.453,0.749
		c-0.147-0.148-0.351-0.273-0.515-0.335c0.851-1.131,1.1-2.519,1.154-3.548l0.632,0.094c0.094,0.016,0.141,0.047,0.141,0.109
		c0,0.094-0.125,0.117-0.195,0.141c-0.016,0.164-0.055,0.546-0.188,1.123h2.199v0.601h-0.476c-0.117,1.871-0.679,2.861-0.857,3.158
		c0.538,0.819,1.177,1.24,1.403,1.388C232.304,9.734,232.171,9.875,232.008,10.093z M230.035,5.048
		c-0.008,0.031-0.023,0.085-0.039,0.117c0.078,0.959,0.397,1.864,0.709,2.449c0.468-0.959,0.577-2.02,0.601-2.565H230.035z"/>
	<path d="M236.325,6.295c-0.413,0.203-1.786,0.865-1.786,1.786c0,1.029,1.786,1.029,2.309,1.029c0.163,0,1.536-0.008,2.604-0.375
		c-0.03,0.133-0.069,0.296-0.054,0.78c-0.772,0.148-1.778,0.234-2.503,0.234c-1.326,0-1.896-0.21-2.262-0.397
		c-0.476-0.242-0.803-0.726-0.803-1.263c0-0.998,0.889-1.622,1.746-2.098c-0.421-0.444-0.507-0.982-0.593-1.902
		c-0.038-0.382-0.054-0.624-0.155-0.881l0.896-0.187c-0.023,0.32-0.039,0.53-0.039,0.741c0,0.733,0.078,1.481,0.444,1.941
		c0.351-0.171,0.834-0.39,1.356-0.584c0.569-0.219,1.567-0.608,1.7-0.663l0.296,0.764C238.126,5.453,236.73,6.101,236.325,6.295z"/>
	<path d="M243.979,9.867c-1.606,0-1.653-1.599-1.653-2.854c0-0.554,0.102-2.963,0.102-3.454c0-0.218-0.008-0.312-0.023-0.437
		l0.827,0.109c0.116,0.016,0.187,0.031,0.187,0.102c0,0.07-0.109,0.125-0.202,0.14c-0.156,1.061-0.195,3.072-0.195,3.579
		c0,1.326,0.094,2.128,1.006,2.128c1.614,0,2.799-1.778,3.064-2.339c0.194,0.265,0.272,0.374,0.515,0.577
		C246.226,9.632,244.627,9.867,243.979,9.867z"/>
	<path d="M253.396,4.791c-0.413,0.281-1.653,1.216-1.653,2.519c0,0.998,0.757,1.801,2.417,1.973c-0.14,0.273-0.21,0.452-0.296,0.733
		c-1.427-0.289-2.808-1.068-2.808-2.698c0-1.021,0.601-2.113,2.129-3.025c-0.194,0.008-3.579,0.374-4.21,0.53l-0.109-0.842
		c0.148,0.008,0.249,0.016,0.397,0.016c0.452,0,4.039-0.226,6.145-0.686l0.155,0.772C255.229,4.081,254.449,4.073,253.396,4.791z"/>
	<path d="M218.529,13.332v6.776h-0.562v-7.337h2.675v0.561H218.529z"/>
	<path d="M224.071,14.197c-0.219,1.287-0.616,2.448-1.084,3.376c-0.476,0.952-0.951,1.466-1.162,1.692
		c-0.179-0.141-0.476-0.281-0.639-0.351c1.458-1.497,2.012-3.478,2.214-5.107l0.687,0.156c0.102,0.023,0.148,0.047,0.148,0.109
		C224.235,14.119,224.204,14.174,224.071,14.197z M227.868,19.125c-0.218-1.021-0.717-3.057-2.323-5.053l0.538-0.397
		c1.497,1.887,2.121,3.641,2.456,5.068C228.312,18.836,228.087,18.969,227.868,19.125z"/>
	<path d="M230.665,18.86v0.414h-0.701v-5.31h5.474v5.31h-0.702V18.86H230.665z M234.735,18.229v-3.634h-4.07v3.634H234.735z"/>
	<path d="M237.189,16.801v-0.686h6.636v0.686H237.189z"/>
	<path d="M244.758,20.146v-0.562h2.113v-6.776h0.562v7.337H244.758z"/>
	<path d="M257.263,16.716c0.016,0.195,0.039,0.515,0.039,0.912c0,0.328-0.016,0.554-0.031,0.741c-0.429-0.008-0.554,0-0.679,0
		c0.023-0.21,0.039-0.468,0.039-0.842c0-0.25-0.008-0.406-0.016-0.522c-1.505,0.733-1.614,1.185-1.614,1.474
		c0,0.226,0,0.663,1.591,0.663c1.154,0,2.02-0.218,2.378-0.312c-0.054,0.25-0.069,0.398-0.077,0.718
		c-0.273,0.054-0.913,0.187-1.996,0.187c-0.632,0-2.511,0-2.511-1.24c0-0.827,0.896-1.513,2.151-2.098
		c-0.078-0.265-0.179-0.616-0.795-0.616c-0.733,0-1.225,0.553-1.403,0.764c-0.148,0.164-0.53,0.631-0.827,1.107l-0.546-0.429
		c0.25-0.25,1.131-1.279,1.935-2.659c-0.851,0.039-0.982,0.039-1.583,0.031V13.94c0.272,0.023,0.507,0.047,1.122,0.047
		c0.156,0,0.461,0,0.772-0.023c0.195-0.375,0.358-0.749,0.476-1.139l0.64,0.148c0.062,0.016,0.171,0.039,0.171,0.132
		c0,0.086-0.124,0.109-0.21,0.117c-0.094,0.21-0.18,0.397-0.32,0.678c0.538-0.062,1.342-0.179,2.051-0.429l0.016,0.686
		c-0.92,0.187-1.949,0.312-2.394,0.359c-0.226,0.405-0.421,0.694-0.601,0.975c0.273-0.148,0.562-0.226,0.874-0.226
		c0.6,0,1.036,0.281,1.231,0.842c0.288-0.125,1.56-0.647,1.809-0.772l0.266,0.702C258.292,16.302,257.582,16.583,257.263,16.716z"/>
	<path d="M261.447,16.295c-0.429-0.375-0.74-0.616-1.209-0.874l0.344-0.53c0.335,0.195,0.904,0.601,1.247,0.874
		C261.658,15.959,261.58,16.068,261.447,16.295z M260.987,19.601c0.039,0.047,0.094,0.117,0.094,0.18
		c0,0.046-0.023,0.085-0.078,0.085c-0.023,0-0.062-0.008-0.117-0.039l-0.616-0.343c0.687-1.061,1.061-2.012,1.279-2.589
		c0.257,0.265,0.39,0.351,0.476,0.405C261.821,17.87,261.385,18.938,260.987,19.601z M261.931,14.423
		c-0.709-0.663-0.92-0.803-1.131-0.928l0.391-0.491c0.53,0.351,0.936,0.733,1.122,0.912
		C262.142,14.111,262.118,14.135,261.931,14.423z M266.289,14.135c0.125,0.016,0.242,0.031,0.242,0.109
		c0,0.093-0.164,0.109-0.211,0.117v0.554h1.021v0.499h-1.021v1.185h-2.245v-1.185h-0.812v1.014c0,1.061-0.062,2.378-0.928,3.587
		c-0.147-0.133-0.265-0.211-0.569-0.328c0.757-1.021,0.913-1.856,0.913-3.337v-2.737h1.91v-0.795l0.725,0.055
		c0.07,0.008,0.141,0.016,0.141,0.094c0,0.094-0.117,0.125-0.219,0.148v0.499h2.168v0.522H266.289z M267.046,20.053
		c-0.896-0.218-1.755-0.771-1.863-0.842c-0.515,0.351-1.076,0.616-1.661,0.827c-0.078-0.133-0.188-0.296-0.46-0.522
		c0.655-0.164,1.092-0.343,1.614-0.655c-0.297-0.226-0.577-0.46-0.967-0.873l0.437-0.382c0.476,0.499,0.623,0.632,1.021,0.913
		c0.515-0.406,0.74-0.71,0.889-0.959h-2.589v-0.522h3.189l0.28,0.288c-0.233,0.406-0.562,0.913-1.247,1.505
		c0.701,0.382,1.224,0.538,1.754,0.663C267.256,19.702,267.155,19.834,267.046,20.053z M264.075,14.135h-0.812v0.78h0.812V14.135z
		 M265.751,14.135h-1.052c0.093,0.023,0.163,0.055,0.163,0.109c0,0.085-0.155,0.109-0.226,0.117v0.554h1.114V14.135z
		 M265.751,15.414h-1.114v0.694h1.114V15.414z"/>
	<path d="M273.718,14.563c-0.46,0-0.912,0.008-1.372,0.023c0,0.538-0.016,1.006,0.008,1.318c0.304,0.554,0.304,1.162,0.304,1.271
		c0,0.46-0.155,1.31-0.701,1.98c-0.468,0.569-0.975,0.827-1.295,0.99c-0.125-0.125-0.421-0.358-0.585-0.483
		c0.89-0.351,1.521-0.795,1.802-1.747c-0.141,0.148-0.413,0.437-0.92,0.437c-0.687,0-1.092-0.592-1.092-1.442
		c0-0.889,0.522-1.497,1.239-1.497c0.305,0,0.46,0.094,0.577,0.156c-0.008-0.148-0.016-0.725-0.016-0.951
		c-0.889,0.039-2.472,0.172-3.337,0.312l-0.062-0.733c0.538,0.008,2.9-0.14,3.384-0.164c-0.039-0.624-0.047-0.756-0.109-1.131
		l0.772,0.078c0.109,0.008,0.188,0.016,0.188,0.101c0,0.055-0.094,0.094-0.141,0.117c-0.023,0.218-0.023,0.281-0.031,0.803
		c2.276-0.102,2.534-0.109,2.736-0.125c-0.008,0.172-0.008,0.468,0.016,0.709C274.802,14.571,274.334,14.563,273.718,14.563z
		 M271.137,15.967c-0.515,0-0.693,0.522-0.693,0.959c0,0.179,0,0.881,0.639,0.881c0.452,0,0.788-0.429,0.788-0.998
		C271.87,16.537,271.729,15.967,271.137,15.967z"/>
</g>
<g>
	<path d="M78.823,12.107v2.986H78.16v-0.608h-5.131v0.608h-0.662v-3.306l0.74,0.055c0.047,0,0.109,0.031,0.109,0.101
		c0,0.078-0.047,0.094-0.188,0.133v1.793h2.207v-2.644h-2.495V8.442l0.693,0.039c0.07,0.008,0.148,0.039,0.148,0.102
		c0,0.07-0.062,0.093-0.179,0.132v1.895h1.832V7.99l0.748,0.055c0.062,0.008,0.133,0.023,0.133,0.109
		c0,0.078-0.062,0.102-0.226,0.148v2.308h1.855V8.434l0.701,0.047c0.078,0.008,0.148,0.016,0.148,0.094
		c0,0.085-0.086,0.109-0.188,0.14v2.511h-2.518v2.644h2.269v-2.059l0.741,0.055c0.062,0.008,0.116,0.031,0.116,0.093
		C79.018,12.052,78.924,12.076,78.823,12.107z"/>
	<path d="M82.501,13.269c-0.842,0.32-2.059,0.686-2.354,0.764c-0.008,0.062-0.023,0.195-0.133,0.195
		c-0.078,0-0.109-0.094-0.125-0.148l-0.179-0.593c0.382-0.062,0.732-0.148,1.114-0.25v-1.887h-0.881v-0.562h0.881V9.058h-1.037
		V8.489h2.714v0.569h-1.037v1.731h0.857v0.562h-0.857v1.708c0.288-0.086,0.904-0.296,1.115-0.375
		C82.509,12.925,82.493,13.058,82.501,13.269z M85.877,14.929c-0.818,0-1.131-0.008-1.131-0.896v-1.676h-1.052l0.568,0.179
		c0.055,0.016,0.156,0.047,0.156,0.132c0,0.102-0.109,0.117-0.249,0.117c-0.266,0.896-0.78,1.809-2.285,2.308
		c-0.062-0.18-0.141-0.32-0.39-0.554c1.638-0.421,1.988-1.341,2.16-2.183h-0.702V8.224h3.29v4.133h-0.889v1.598
		c0,0.335,0.023,0.382,0.507,0.382c0.32,0,0.46,0,0.616-0.905c0.203,0.18,0.366,0.257,0.569,0.328
		C86.727,14.929,86.438,14.929,85.877,14.929z M85.628,8.754h-2.051V9.44h2.051V8.754z M85.628,9.931h-2.051v0.702h2.051V9.931z
		 M85.628,11.109h-2.051v0.717h2.051V11.109z"/>
	<path d="M89.478,13.814v-0.382h-1.029v0.694h-0.593V8.684h2.214v5.131H89.478z M89.478,9.237h-1.029v1.481h1.029V9.237z
		 M89.478,11.28h-1.029v1.599h1.029V11.28z M93.243,11.039l0.53,0.07c0.047,0.008,0.109,0.031,0.109,0.078
		c0,0.086-0.133,0.125-0.172,0.141v0.639h0.959v0.577h-0.959v1.653c0,0.53-0.047,0.967-1.466,0.913
		c-0.016-0.328-0.125-0.538-0.227-0.702c0.172,0.031,0.398,0.047,0.577,0.047c0.405,0,0.46-0.062,0.46-0.421v-1.489h-2.58v-0.577
		h2.58v-0.928h-2.721v-0.585h1.801V9.565h-1.583V8.98h1.583V7.974l0.694,0.039c0.047,0,0.163,0.031,0.163,0.102
		c0,0.07-0.062,0.093-0.202,0.125V8.98h1.685v0.585h-1.685v0.889h1.98v0.585H93.243z M91.613,14.251
		c-0.094-0.148-0.507-0.78-0.951-1.208l0.476-0.39c0.305,0.281,0.726,0.78,0.99,1.178C92.026,13.9,91.879,13.994,91.613,14.251z"/>
</g>
<g>
	<path d="M72.434,46.964v0.639h2.564v2.948h-2.635c-0.047,0.265-0.117,0.67-0.359,1.115c1.428,0.78,2.878,0.92,3.649,0.982
		c-0.187,0.257-0.226,0.343-0.312,0.624c-0.663-0.086-2.207-0.289-3.673-1.139c-0.296,0.312-1.061,0.92-2.659,1.154
		c-0.101-0.227-0.202-0.367-0.437-0.616c1.334-0.109,2.16-0.499,2.565-0.873c-0.538-0.367-0.818-0.679-1.006-0.889l0.444-0.351
		c0.305,0.319,0.562,0.553,0.913,0.787c0.054-0.109,0.179-0.351,0.241-0.795h-2.495v-2.948h2.55v-0.639h-3.221v-0.585h7.143v0.585
		H72.434z M71.787,48.165H69.9v0.64h1.887V48.165z M71.787,49.319H69.9v0.671h1.879c0.008-0.203,0.008-0.289,0.008-0.483V49.319z
		 M74.336,49.319h-1.902v0.156c0,0.226,0,0.32-0.016,0.515h1.918V49.319z M74.336,48.165h-1.902v0.64h1.902V48.165z"/>
	<path d="M78.568,49.093c0.078,0.008,0.241,0.016,0.241,0.117c0,0.078-0.155,0.117-0.233,0.14v0.554h1.302v0.522h-1.192
		c0.257,0.413,0.577,0.795,0.982,1.131c-0.18,0.132-0.281,0.257-0.421,0.491c-0.383-0.445-0.624-0.936-0.671-1.037v2.253h-0.593
		v-2.324c-0.241,0.554-0.593,1.216-1.146,1.84c-0.101-0.094-0.226-0.211-0.537-0.343c0.67-0.616,1.177-1.427,1.45-2.012h-1.248
		v-0.522h1.481v-0.811h-1.606v-0.53h1.076c-0.148-0.406-0.226-0.616-0.374-0.92l0.437-0.132h-0.92v-0.53h1.364v-0.866l0.64,0.055
		c0.141,0.016,0.194,0.039,0.194,0.094c0,0.062-0.022,0.07-0.194,0.14v0.577h1.325v0.53h-0.646l0.233,0.039
		c0.07,0.016,0.133,0.039,0.133,0.101c0,0.086-0.125,0.102-0.195,0.102c-0.109,0.289-0.265,0.6-0.374,0.811h1.006v0.53H78.568z
		 M77.617,47.51c0.125,0.25,0.265,0.616,0.366,0.928l-0.413,0.125h0.92c0.07-0.117,0.304-0.522,0.476-1.053H77.617z M83.371,46.886
		c-0.062,0-0.101-0.016-0.194-0.07c-0.951,0.335-1.669,0.429-2.137,0.476v1.364h2.417v0.593h-0.857v4.023h-0.632v-4.023H81.04v0.156
		c0,0.811-0.047,2.448-1.193,3.86c-0.241-0.156-0.272-0.172-0.592-0.312c1.153-1.193,1.153-2.87,1.153-3.532v-2.706l0.46,0.062
		c0.32,0,1.404-0.21,2.168-0.569l0.39,0.507c0.023,0.031,0.039,0.07,0.039,0.101C83.464,46.863,83.425,46.886,83.371,46.886z"/>
	<path d="M86.067,51.994v-0.382h-1.029v0.694h-0.593v-5.442h2.214v5.131H86.067z M86.067,47.417h-1.029v1.481h1.029V47.417z
		 M86.067,49.459h-1.029v1.599h1.029V49.459z M89.833,49.218l0.53,0.07c0.047,0.008,0.109,0.031,0.109,0.078
		c0,0.086-0.133,0.125-0.172,0.141v0.639h0.959v0.577H90.3v1.653c0,0.53-0.047,0.967-1.466,0.913
		c-0.016-0.328-0.125-0.538-0.227-0.702c0.172,0.031,0.398,0.047,0.577,0.047c0.405,0,0.46-0.062,0.46-0.421v-1.489h-2.58v-0.577
		h2.58v-0.928h-2.721v-0.585h1.801v-0.889h-1.583v-0.585h1.583v-1.006l0.694,0.039c0.047,0,0.163,0.031,0.163,0.102
		c0,0.07-0.062,0.093-0.202,0.125v0.741h1.685v0.585H89.38v0.889h1.98v0.585H89.833z M88.203,52.43
		c-0.094-0.148-0.507-0.78-0.951-1.208l0.476-0.39c0.305,0.281,0.726,0.78,0.99,1.178C88.616,52.079,88.468,52.173,88.203,52.43z"/>
</g>
</svg>
