<?xml version="1.0" encoding="utf-8"?>
<!-- Generator: Adobe Illustrator 16.0.0, SVG Export Plug-In . SVG Version: 6.00 Build 0)  -->
<!DOCTYPE svg PUBLIC "-//W3C//DTD SVG 1.1//EN" "http://www.w3.org/Graphics/SVG/1.1/DTD/svg11.dtd">
<svg version="1.1" id="レイヤー_1" xmlns="http://www.w3.org/2000/svg" xmlns:xlink="http://www.w3.org/1999/xlink" x="0px"
	 y="0px" width="357.165px" height="93.527px" viewBox="0 0 357.165 93.527" enable-background="new 0 0 357.165 93.527"
	 xml:space="preserve">
<rect fill="#DFF2FC" stroke="#00A0E9" stroke-miterlimit="10" width="161" height="93.527"/>
<rect x="5.5" y="14.152" fill="#FEEFE7" stroke="#EF845D" stroke-miterlimit="10" width="137" height="38.541"/>
<rect x="5.5" y="54.86" fill="#FEEFE7" stroke="#EF845D" stroke-miterlimit="10" width="137" height="25.625"/>
<g>
	<path d="M5.935,2.883v5.474h3.104v0.67H5.163V2.883H5.935z"/>
	<path d="M13.895,7.64c-0.109,0.444-0.382,1.559-1.988,1.559c-1.941,0-2.136-1.762-2.136-2.417c0-1.326,0.663-2.401,2.074-2.401
		c1.396,0,2.105,1.076,2.113,2.573h-3.454c0.046,0.975,0.405,1.646,1.396,1.646c0.203,0,1.092,0,1.248-0.959H13.895z M13.216,6.392
		c-0.133-0.889-0.562-1.419-1.357-1.419c-0.788,0-1.224,0.53-1.341,1.419H13.216z"/>
	<path d="M15.383,7.678c0.062,0.834,0.772,0.92,1.083,0.92c0.148,0,1.131,0,1.131-0.733c0-0.476-0.265-0.562-1.201-0.842
		c-1.092-0.328-1.646-0.491-1.646-1.349c0-1.013,1.029-1.294,1.708-1.294c1.614,0,1.739,0.998,1.793,1.411h-0.733
		c-0.023-0.795-0.827-0.819-1.029-0.819c-0.655,0-0.998,0.273-0.998,0.632c0,0.382,0.109,0.499,1.287,0.857
		c1.006,0.312,1.56,0.546,1.56,1.326c0,1.014-0.904,1.411-1.793,1.411c-1.676,0-1.848-1.091-1.902-1.521H15.383z"/>
	<path d="M19.717,7.678c0.062,0.834,0.772,0.92,1.083,0.92c0.148,0,1.131,0,1.131-0.733c0-0.476-0.265-0.562-1.201-0.842
		c-1.092-0.328-1.646-0.491-1.646-1.349c0-1.013,1.029-1.294,1.708-1.294c1.614,0,1.739,0.998,1.793,1.411h-0.733
		c-0.023-0.795-0.827-0.819-1.029-0.819c-0.655,0-0.998,0.273-0.998,0.632c0,0.382,0.109,0.499,1.287,0.857
		c1.006,0.312,1.56,0.546,1.56,1.326c0,1.014-0.904,1.411-1.793,1.411c-1.676,0-1.848-1.091-1.902-1.521H19.717z"/>
	<path d="M27.536,6.79c0,1.809-1.123,2.409-2.09,2.409c-1.138,0-2.097-0.772-2.097-2.37c0-2.121,1.403-2.448,2.097-2.448
		C26.405,4.38,27.536,4.965,27.536,6.79z M24.09,6.79c0,0.749,0.351,1.809,1.356,1.809s1.349-1.076,1.349-1.809
		c0-0.741-0.343-1.817-1.349-1.817S24.09,6.041,24.09,6.79z"/>
	<path d="M29.18,4.544l0.016,0.655c0.156-0.226,0.554-0.818,1.419-0.818c0.764,0,1.606,0.53,1.606,1.676v2.971H31.52V6.104
		c0-0.188-0.078-1.131-1.1-1.131c-0.749,0-1.224,0.655-1.224,1.287v2.768h-0.709V4.544H29.18z"/>
	<path d="M36.095,9.027h-0.764V4.622h-1.263V4.037c0.655-0.031,1.208-0.187,1.411-1.154h0.616V9.027z"/>
	<path d="M46.76,4.544c-0.741,1.747-1.676,3.969-4.538,5.115c-0.093-0.125-0.179-0.226-0.514-0.506
		c1.356-0.546,3.267-1.536,4.28-4.71h-2.588c-0.741,1.154-1.653,1.942-1.988,2.238c-0.141-0.148-0.343-0.343-0.522-0.483
		c1.224-0.928,2.183-2.238,2.706-3.618l0.655,0.281c0.031,0.016,0.109,0.047,0.109,0.109c0,0.086-0.133,0.109-0.187,0.109
		c-0.195,0.39-0.289,0.554-0.398,0.741h2.332c0.242,0,0.39-0.062,0.515-0.117l0.39,0.367C46.861,4.31,46.814,4.419,46.76,4.544z"/>
	<path d="M53.916,4.872c0.234,0,0.437-0.016,0.655-0.078l0.444,0.32c-0.101,0.171-0.468,0.951-0.545,1.107
		c-0.834,1.669-1.661,2.597-3.899,3.361c-0.187-0.234-0.21-0.273-0.483-0.562c1.895-0.515,3.181-1.403,3.938-3.524h-5.317V4.872
		H53.916z M54.103,2.992v0.624h-4.476V2.992H54.103z"/>
	<path d="M62.476,9.167c-0.671-0.975-1.489-1.84-2.448-2.534c-0.624,0.834-1.817,1.973-3.361,2.635
		c-0.132-0.273-0.226-0.413-0.437-0.601c0.717-0.257,3.345-1.325,4.491-4.857h-3.813v-0.64h3.922c0.125,0,0.406-0.015,0.53-0.054
		l0.382,0.358c-0.164,0.218-0.273,0.476-0.289,0.515c-0.304,0.741-0.632,1.474-1.076,2.137c0.741,0.522,1.833,1.458,2.644,2.487
		C62.749,8.856,62.709,8.887,62.476,9.167z"/>
	<path d="M66.714,6.127c0.726-0.062,0.655-0.671,0.647-0.764l-0.141-1.279c-0.008-0.055-0.015-0.172-0.015-0.25
		c0-0.289,0.164-0.85,1.068-1.123l0.265,0.375c-0.289,0.14-0.764,0.358-0.764,0.811c0,0.054,0.008,0.21,0.016,0.272l0.141,1.193
		c0.085,0.725-0.367,0.967-0.515,1.029c0.148,0.062,0.6,0.312,0.515,1.037l-0.141,1.186c-0.008,0.078-0.016,0.203-0.016,0.273
		c0,0.452,0.468,0.67,0.764,0.811l-0.273,0.375c-1.06-0.32-1.06-1.037-1.06-1.092s0.007-0.234,0.015-0.281l0.141-1.279
		c0.055-0.468-0.21-0.725-0.647-0.764V6.127z"/>
	<path d="M13.699,18.256c-0.047-0.874-0.507-1.224-1.341-1.224c-0.156,0-1.31,0-1.31,0.959c0,0.639,0.429,0.803,1.645,1.255
		c1.248,0.468,1.957,0.725,1.957,1.77c0,0.78-0.562,1.824-2.183,1.824c-1.107,0-2.347-0.515-2.386-2.02H10.9
		c0.008,0.881,0.608,1.341,1.513,1.341c0.866,0,1.458-0.491,1.458-1.076c0-0.639-0.515-0.834-1.497-1.177
		c-1.349-0.476-2.105-0.749-2.105-1.825c0-1.052,0.873-1.731,2.082-1.731c1.014,0,1.996,0.398,2.145,1.903H13.699z"/>
	<path d="M16.715,16.938v1.248h0.975v0.569h-0.975v2.979c0,0.452,0.351,0.483,0.741,0.483h0.234v0.608
		c-0.085,0.008-0.179,0.016-0.358,0.016c-0.46,0-1.326,0-1.326-1.091v-2.994h-0.741v-0.569h0.741v-1.248H16.715z"/>
	<path d="M18.539,19.48c0.031-1.014,0.913-1.458,1.872-1.458c0.624,0,1.833,0.226,1.833,1.481v2.409
		c0,0.179,0.046,0.522,0.195,0.655v0.102h-0.764c-0.117-0.179-0.133-0.46-0.133-0.554c-0.429,0.468-1.021,0.725-1.645,0.725
		c-0.709,0-1.614-0.351-1.614-1.38c0-1.068,0.92-1.208,2.417-1.45c0.554-0.086,0.85-0.133,0.85-0.577
		c0-0.179-0.109-0.819-1.138-0.819c-0.647,0-1.13,0.25-1.169,0.866H18.539z M21.541,20.345c-0.218,0.125-0.288,0.133-0.896,0.226
		c-1.31,0.195-1.622,0.359-1.622,0.874c0,0.328,0.226,0.795,0.982,0.795c0.912,0,1.536-0.663,1.536-1.068V20.345z"/>
	<path d="M24.121,18.186l0.008,0.616c0.132-0.227,0.452-0.78,1.606-0.78h0.32v0.709h-0.351c-0.522,0-0.803,0.117-0.975,0.203
		c-0.483,0.257-0.6,0.842-0.6,1.076v2.659h-0.709v-4.483H24.121z"/>
	<path d="M27.972,16.938v1.248h0.975v0.569h-0.975v2.979c0,0.452,0.351,0.483,0.741,0.483h0.234v0.608
		c-0.085,0.008-0.179,0.016-0.358,0.016c-0.46,0-1.326,0-1.326-1.091v-2.994h-0.741v-0.569h0.741v-1.248H27.972z"/>
	<path d="M37.07,17.203c-0.32,0.819-0.67,1.629-1.193,2.433c0.117,0.102,1.006,0.936,1.396,1.544
		c-0.187,0.164-0.351,0.328-0.499,0.538c-0.421-0.663-1.169-1.412-1.279-1.521c-0.85,1.13-1.965,2.027-3.228,2.643
		c-0.109-0.171-0.296-0.335-0.515-0.515c1.131-0.53,2.152-1.169,3.236-2.604c-0.148-0.133-0.881-0.788-1.817-1.38l0.39-0.53
		c0.546,0.367,1.232,0.866,1.809,1.365c0.234-0.382,0.756-1.271,1.107-2.55l0.709,0.328c0.07,0.031,0.109,0.062,0.109,0.109
		C37.296,17.141,37.195,17.188,37.07,17.203z"/>
	<path d="M40.904,19.386c-0.257-0.584-0.694-1.388-1.169-1.957l0.569-0.375c0.429,0.507,0.959,1.38,1.186,1.965
		C41.263,19.113,41.083,19.238,40.904,19.386z M45.692,16.915c-0.507,3.134-1.373,4.725-4.406,6.082
		c-0.125-0.234-0.28-0.414-0.46-0.585c1.528-0.601,2.519-1.31,3.143-2.316c0.515-0.834,0.928-2.027,1.006-3.509l0.725,0.125
		c0.078,0.016,0.164,0.047,0.164,0.101C45.863,16.899,45.754,16.915,45.692,16.915z"/>
	<path d="M48.653,20.049c-0.242-0.686-0.413-1.013-0.772-1.606l0.546-0.234c0.296,0.437,0.593,1.045,0.78,1.591
		C49.004,19.87,48.84,19.94,48.653,20.049z M53.16,18.333c-0.577,2.347-1.653,3.711-3.906,4.601c-0.141-0.21-0.21-0.304-0.39-0.507
		c0.952-0.328,3.228-1.201,3.712-4.515l0.6,0.187c0.102,0.031,0.141,0.062,0.141,0.117C53.316,18.295,53.246,18.318,53.16,18.333z
		 M50.322,19.644c-0.18-0.577-0.382-1.053-0.726-1.614l0.554-0.226c0.328,0.53,0.554,1.013,0.733,1.614
		C50.821,19.433,50.548,19.511,50.322,19.644z"/>
	<path d="M60.807,20.93c-0.749-0.725-1.684-1.396-2.885-1.98v4.101H57.22v-6.744l0.709,0.054c0.102,0.008,0.148,0.031,0.148,0.094
		c0,0.086-0.102,0.109-0.156,0.117v2.223l0.304-0.421c0.686,0.335,1.879,0.959,2.994,1.988
		C61.025,20.579,60.854,20.844,60.807,20.93z M60.846,18.287c-0.226-0.304-0.507-0.569-0.819-0.811l0.382-0.312
		c0.304,0.21,0.671,0.569,0.842,0.749C61.111,18.022,61.002,18.123,60.846,18.287z M61.524,17.679
		c-0.39-0.437-0.686-0.663-0.834-0.772l0.367-0.312c0.164,0.117,0.569,0.46,0.818,0.749C61.743,17.437,61.625,17.554,61.524,17.679z
		"/>
	<path d="M64.882,19.769c0.726-0.062,0.655-0.671,0.647-0.764l-0.141-1.279c-0.008-0.055-0.015-0.172-0.015-0.25
		c0-0.289,0.164-0.85,1.068-1.123l0.265,0.375c-0.289,0.14-0.764,0.358-0.764,0.811c0,0.054,0.008,0.21,0.016,0.272l0.141,1.193
		c0.085,0.725-0.367,0.967-0.515,1.029c0.148,0.062,0.6,0.312,0.515,1.037l-0.141,1.186c-0.008,0.078-0.016,0.203-0.016,0.273
		c0,0.452,0.468,0.67,0.764,0.811l-0.273,0.375c-1.06-0.32-1.06-1.037-1.06-1.092s0.007-0.234,0.015-0.281l0.141-1.279
		c0.055-0.468-0.21-0.725-0.647-0.764V19.769z"/>
	<path d="M17.667,30.167c1.528,0,2.706,1.029,2.706,3.025c0,2.542-1.614,3.119-2.706,3.119h-2.105v-6.144H17.667z M16.333,30.837
		v4.803h1.326c1.271,0,1.934-1.068,1.934-2.425c0-1.146-0.554-2.378-1.934-2.378H16.333z"/>
	<path d="M25.283,34.923c-0.109,0.444-0.382,1.559-1.988,1.559c-1.941,0-2.136-1.762-2.136-2.417c0-1.326,0.663-2.401,2.074-2.401
		c1.396,0,2.105,1.076,2.113,2.573h-3.454c0.046,0.975,0.405,1.646,1.396,1.646c0.203,0,1.092,0,1.248-0.959H25.283z M24.604,33.676
		c-0.133-0.889-0.562-1.419-1.357-1.419c-0.788,0-1.224,0.53-1.341,1.419H24.604z"/>
	<path d="M27.005,30.167v2.261c0.125-0.203,0.499-0.764,1.38-0.764c0.913,0,1.872,0.694,1.872,2.417
		c0,1.552-0.819,2.401-1.856,2.401c-0.857,0-1.201-0.491-1.396-0.772l-0.016,0.601h-0.694v-6.144H27.005z M27.005,34.073
		c0,1.591,0.857,1.809,1.255,1.809c0.289,0,1.255-0.117,1.255-1.809c0-1.614-0.874-1.817-1.255-1.817
		C27.956,32.256,27.005,32.389,27.005,34.073z"/>
	<path d="M31.916,31.828v2.924c0,0.187,0.078,1.131,1.091,1.131c0.749,0,1.232-0.655,1.232-1.287v-2.768h0.702v4.483h-0.694
		l-0.008-0.655c-0.156,0.226-0.561,0.826-1.427,0.826c-0.764,0-1.606-0.538-1.606-1.684v-2.971H31.916z"/>
	<path d="M40.219,32.288c-0.062-0.023-0.14-0.047-0.257-0.047c-0.257,0-0.405,0.125-0.483,0.195
		c0.047,0.117,0.102,0.242,0.102,0.452c0,0.764-0.663,1.232-1.676,1.232c-0.242,0-0.608-0.055-0.772-0.086
		c-0.094,0.031-0.351,0.148-0.351,0.328c0,0.21,0.226,0.273,1.169,0.358c0.936,0.086,1.412,0.141,1.731,0.382
		c0.281,0.203,0.453,0.507,0.453,0.896c0,1.357-1.918,1.357-2.191,1.357c-0.943,0-2.105-0.218-2.105-1.263
		c0-0.102,0-0.795,0.741-1.061c-0.21-0.094-0.507-0.234-0.507-0.562c0-0.187,0.093-0.405,0.608-0.616
		c-0.179-0.117-0.545-0.367-0.545-0.975c0-0.756,0.655-1.216,1.723-1.216c0.803,0,1.099,0.21,1.325,0.366
		c0.078-0.101,0.312-0.413,0.811-0.413c0.109,0,0.156,0.016,0.226,0.039V32.288z M36.554,35.999c0,0.499,0.413,0.795,1.442,0.795
		c0.53,0,1.38-0.094,1.38-0.764c0-0.452-0.351-0.577-0.445-0.608c-0.257-0.078-1.286-0.172-1.622-0.203
		C36.959,35.329,36.554,35.461,36.554,35.999z M36.882,32.888c0,0.686,0.85,0.702,0.975,0.709c0.101,0,0.982-0.008,0.982-0.709
		c0-0.437-0.359-0.702-0.975-0.702C37.201,32.187,36.882,32.475,36.882,32.888z"/>
	<path d="M41.863,36.311h-0.811v-0.866h0.811V36.311z"/>
	<path d="M43.897,30.167v5.474h3.104v0.67h-3.875v-6.144H43.897z"/>
	<path d="M51.92,34.073c0,1.809-1.123,2.409-2.09,2.409c-1.138,0-2.097-0.772-2.097-2.37c0-2.121,1.403-2.448,2.097-2.448
		C50.789,31.664,51.92,32.249,51.92,34.073z M48.474,34.073c0,0.749,0.351,1.809,1.356,1.809s1.349-1.076,1.349-1.809
		c0-0.741-0.343-1.817-1.349-1.817S48.474,33.325,48.474,34.073z"/>
	<path d="M56.971,32.288c-0.062-0.023-0.14-0.047-0.257-0.047c-0.257,0-0.405,0.125-0.483,0.195
		c0.047,0.117,0.102,0.242,0.102,0.452c0,0.764-0.663,1.232-1.677,1.232c-0.242,0-0.608-0.055-0.771-0.086
		c-0.094,0.031-0.351,0.148-0.351,0.328c0,0.21,0.226,0.273,1.169,0.358c0.936,0.086,1.412,0.141,1.731,0.382
		c0.281,0.203,0.453,0.507,0.453,0.896c0,1.357-1.918,1.357-2.191,1.357c-0.943,0-2.105-0.218-2.105-1.263
		c0-0.102,0-0.795,0.741-1.061c-0.21-0.094-0.507-0.234-0.507-0.562c0-0.187,0.093-0.405,0.608-0.616
		c-0.179-0.117-0.545-0.367-0.545-0.975c0-0.756,0.655-1.216,1.723-1.216c0.803,0,1.099,0.21,1.325,0.366
		c0.078-0.101,0.312-0.413,0.811-0.413c0.109,0,0.156,0.016,0.226,0.039V32.288z M53.307,35.999c0,0.499,0.413,0.795,1.442,0.795
		c0.53,0,1.38-0.094,1.38-0.764c0-0.452-0.351-0.577-0.445-0.608c-0.257-0.078-1.286-0.172-1.622-0.203
		C53.712,35.329,53.307,35.461,53.307,35.999z M53.634,32.888c0,0.686,0.85,0.702,0.975,0.709c0.101,0,0.982-0.008,0.982-0.709
		c0-0.437-0.359-0.702-0.975-0.702C53.954,32.187,53.634,32.475,53.634,32.888z"/>
	<path d="M58.927,37.356c-0.21-0.304-0.359-0.522-0.499-0.866c-0.577-1.403-0.577-2.315-0.577-2.729
		c0-0.764,0.086-1.287,0.343-2.089c0.265-0.827,0.452-1.1,0.733-1.505h0.562c-0.335,0.6-0.936,1.7-0.936,3.594
		c0,1.879,0.592,2.963,0.936,3.595H58.927z"/>
	<path d="M60.969,30.167l-0.117,2.339h-0.437l-0.117-2.339H60.969z M62.318,30.167l-0.117,2.339h-0.437l-0.117-2.339H62.318z"/>
	<path d="M67.837,31.087c-0.218,1.287-0.616,2.448-1.084,3.376c-0.476,0.952-0.951,1.466-1.162,1.692
		c-0.18-0.141-0.476-0.281-0.64-0.351c1.458-1.497,2.012-3.478,2.214-5.107l0.687,0.156c0.101,0.023,0.148,0.047,0.148,0.109
		C68.001,31.009,67.97,31.063,67.837,31.087z M71.635,36.015c-0.219-1.021-0.718-3.057-2.324-5.053l0.538-0.397
		c1.497,1.887,2.121,3.641,2.456,5.068C72.079,35.726,71.853,35.859,71.635,36.015z"/>
	<path d="M74.432,35.75v0.414H73.73v-5.31h5.474v5.31h-0.702V35.75H74.432z M78.502,35.118v-3.634h-4.07v3.634H78.502z"/>
	<path d="M80.957,33.691v-0.687h6.635v0.687H80.957z"/>
	<path d="M91.285,30.167l-0.117,2.339h-0.437l-0.117-2.339H91.285z M92.634,30.167l-0.117,2.339h-0.437l-0.117-2.339H92.634z"/>
	<path d="M93.452,37.356c0.343-0.632,0.928-1.715,0.928-3.595c0-1.895-0.601-2.994-0.928-3.594h0.562
		c0.272,0.405,0.468,0.678,0.725,1.505c0.257,0.803,0.351,1.325,0.351,2.089c0,0.414-0.008,1.326-0.577,2.729
		c-0.141,0.343-0.296,0.562-0.499,0.866H93.452z"/>
	<path d="M99.75,32.693H98.94v-0.866h0.811V32.693z M99.75,36.303c0,0.21,0,0.686-0.811,0.772v-0.304
		c0.39-0.07,0.39-0.273,0.39-0.46h-0.39v-0.866h0.811V36.303z"/>
	<path d="M11.953,47.582c-0.733,0.062-0.663,0.671-0.655,0.764l0.14,1.279c0.008,0.055,0.016,0.156,0.016,0.257
		c0,0.281-0.156,0.842-1.061,1.115l-0.273-0.375c0.289-0.132,0.764-0.358,0.764-0.803c0-0.055-0.008-0.219-0.016-0.281l-0.132-1.186
		c-0.078-0.725,0.358-0.975,0.515-1.037c-0.156-0.062-0.593-0.304-0.515-1.029l0.132-1.193c0.008-0.039,0.016-0.203,0.016-0.272
		c0-0.453-0.46-0.671-0.764-0.811l0.273-0.375c1.061,0.32,1.061,1.037,1.061,1.1c0,0.023-0.008,0.226-0.016,0.273l-0.14,1.279
		c-0.055,0.468,0.21,0.725,0.655,0.764V47.582z"/>
	<path d="M11.11,57.45v3.945c0,1.692,1.552,1.692,1.762,1.692c0.281,0,1.747-0.062,1.747-1.692V57.45h0.772v3.859
		c0,1.169-0.569,2.456-2.534,2.456c-1.739,0-2.511-1.052-2.511-2.456V57.45H11.11z"/>
	<path d="M17.323,59.111l0.016,0.601c0.195-0.281,0.538-0.764,1.396-0.764c1.037,0,1.856,0.85,1.856,2.401
		c0,1.715-0.959,2.417-1.872,2.417c-0.881,0-1.255-0.569-1.38-0.764v1.638h-0.709v-5.528H17.323z M17.339,61.356
		c0,1.599,0.865,1.809,1.255,1.809c0.289,0,1.255-0.117,1.255-1.809c0-1.614-0.866-1.817-1.255-1.817
		C18.282,59.54,17.339,59.672,17.339,61.356z"/>
	<path d="M25.275,57.45v6.144h-0.694l-0.008-0.601c-0.203,0.281-0.538,0.772-1.403,0.772c-1.029,0-1.855-0.85-1.855-2.401
		c0-1.723,0.967-2.417,1.871-2.417c0.889,0,1.255,0.561,1.388,0.764V57.45H25.275z M22.055,61.356c0,1.622,0.889,1.809,1.255,1.809
		c0.343,0,1.263-0.164,1.263-1.809c0-1.591-0.85-1.817-1.263-1.817C22.999,59.54,22.055,59.68,22.055,61.356z"/>
	<path d="M26.49,60.405c0.031-1.014,0.913-1.458,1.872-1.458c0.624,0,1.833,0.226,1.833,1.481v2.409
		c0,0.179,0.046,0.522,0.195,0.655v0.102h-0.764c-0.117-0.179-0.133-0.46-0.133-0.554c-0.429,0.468-1.021,0.725-1.645,0.725
		c-0.709,0-1.614-0.351-1.614-1.38c0-1.068,0.92-1.208,2.417-1.45c0.554-0.086,0.85-0.133,0.85-0.577
		c0-0.179-0.109-0.819-1.138-0.819c-0.647,0-1.13,0.25-1.169,0.866H26.49z M29.492,61.271c-0.218,0.125-0.288,0.133-0.896,0.226
		c-1.31,0.195-1.622,0.359-1.622,0.874c0,0.328,0.226,0.795,0.982,0.795c0.912,0,1.536-0.663,1.536-1.068V61.271z"/>
	<path d="M32.462,57.863v1.248h0.975v0.569h-0.975v2.979c0,0.452,0.351,0.483,0.741,0.483h0.234v0.608
		c-0.085,0.008-0.179,0.016-0.358,0.016c-0.46,0-1.326,0-1.326-1.091V59.68h-0.741v-0.569h0.741v-1.248H32.462z"/>
	<path d="M38.146,62.207c-0.109,0.444-0.382,1.559-1.988,1.559c-1.941,0-2.136-1.762-2.136-2.417c0-1.326,0.663-2.401,2.074-2.401
		c1.396,0,2.105,1.076,2.113,2.573h-3.454c0.046,0.975,0.405,1.646,1.396,1.646c0.203,0,1.092,0,1.248-0.959H38.146z M37.467,60.959
		c-0.133-0.889-0.562-1.419-1.357-1.419c-0.788,0-1.224,0.53-1.341,1.419H37.467z"/>
	<path d="M46.471,58.128c-0.32,0.819-0.67,1.629-1.193,2.433c0.117,0.102,1.006,0.936,1.396,1.544
		c-0.187,0.164-0.351,0.328-0.499,0.538c-0.421-0.663-1.169-1.412-1.279-1.521c-0.85,1.13-1.965,2.027-3.228,2.643
		c-0.109-0.171-0.296-0.335-0.515-0.515c1.131-0.53,2.152-1.169,3.236-2.604c-0.148-0.133-0.881-0.788-1.817-1.38l0.39-0.53
		c0.546,0.367,1.232,0.866,1.809,1.365c0.234-0.382,0.756-1.271,1.107-2.55l0.709,0.328c0.07,0.031,0.109,0.062,0.109,0.109
		C46.697,58.066,46.596,58.113,46.471,58.128z"/>
	<path d="M50.306,60.312c-0.257-0.585-0.694-1.388-1.169-1.957l0.569-0.374c0.429,0.506,0.959,1.38,1.186,1.965
		C50.665,60.039,50.485,60.164,50.306,60.312z M55.093,57.84c-0.507,3.135-1.373,4.725-4.406,6.082
		c-0.125-0.234-0.28-0.414-0.46-0.585c1.528-0.601,2.519-1.31,3.143-2.316c0.515-0.834,0.928-2.027,1.006-3.509l0.725,0.125
		c0.078,0.016,0.164,0.047,0.164,0.101C55.265,57.824,55.156,57.84,55.093,57.84z"/>
	<path d="M58.054,60.975c-0.242-0.687-0.413-1.014-0.772-1.606l0.546-0.234c0.296,0.437,0.593,1.045,0.78,1.59
		C58.405,60.795,58.241,60.865,58.054,60.975z M62.561,59.259c-0.577,2.347-1.653,3.712-3.906,4.601
		c-0.141-0.21-0.21-0.304-0.39-0.507c0.952-0.328,3.228-1.201,3.712-4.515l0.6,0.187c0.102,0.031,0.141,0.062,0.141,0.117
		C62.717,59.22,62.647,59.243,62.561,59.259z M59.723,60.569c-0.18-0.577-0.382-1.053-0.726-1.614l0.554-0.227
		c0.328,0.53,0.554,1.014,0.733,1.614C60.222,60.358,59.949,60.437,59.723,60.569z"/>
	<path d="M70.208,61.855c-0.749-0.725-1.684-1.396-2.885-1.98v4.101h-0.702v-6.745l0.709,0.055c0.102,0.008,0.148,0.031,0.148,0.094
		c0,0.086-0.102,0.109-0.156,0.117v2.223l0.304-0.421c0.686,0.335,1.879,0.959,2.994,1.988
		C70.427,61.504,70.255,61.77,70.208,61.855z M70.248,59.212c-0.226-0.304-0.507-0.569-0.819-0.811l0.382-0.312
		c0.304,0.21,0.671,0.569,0.842,0.749C70.513,58.947,70.403,59.048,70.248,59.212z M70.926,58.604
		c-0.39-0.437-0.686-0.663-0.834-0.772l0.367-0.312c0.164,0.117,0.569,0.46,0.818,0.749C71.144,58.362,71.027,58.479,70.926,58.604z
		"/>
	<path d="M74.284,60.694c0.726-0.062,0.655-0.671,0.647-0.764l-0.141-1.279c-0.008-0.055-0.015-0.171-0.015-0.25
		c0-0.289,0.164-0.85,1.068-1.123l0.265,0.375c-0.289,0.14-0.764,0.358-0.764,0.811c0,0.054,0.008,0.21,0.016,0.272L75.5,59.93
		c0.085,0.725-0.367,0.967-0.515,1.029c0.148,0.062,0.6,0.312,0.515,1.037l-0.141,1.186c-0.008,0.078-0.016,0.203-0.016,0.273
		c0,0.452,0.468,0.67,0.764,0.811l-0.273,0.375c-1.06-0.32-1.06-1.037-1.06-1.092s0.007-0.234,0.015-0.281l0.141-1.279
		c0.055-0.468-0.21-0.725-0.647-0.764V60.694z"/>
	<path d="M11.953,74.865c-0.733,0.062-0.663,0.671-0.655,0.764l0.14,1.279c0.008,0.055,0.016,0.156,0.016,0.257
		c0,0.281-0.156,0.842-1.061,1.115l-0.273-0.375c0.289-0.132,0.764-0.358,0.764-0.803c0-0.055-0.008-0.219-0.016-0.281l-0.132-1.186
		c-0.078-0.725,0.358-0.975,0.515-1.037c-0.156-0.062-0.593-0.304-0.515-1.029l0.132-1.193c0.008-0.039,0.016-0.203,0.016-0.272
		c0-0.453-0.46-0.671-0.764-0.811l0.273-0.375c1.061,0.32,1.061,1.037,1.061,1.1c0,0.023-0.008,0.226-0.016,0.273l-0.14,1.279
		c-0.055,0.468,0.21,0.725,0.655,0.764V74.865z"/>
	<path d="M6.761,88.508c-0.733,0.062-0.663,0.67-0.655,0.764l0.14,1.279c0.008,0.055,0.016,0.156,0.016,0.257
		c0,0.281-0.156,0.842-1.061,1.115l-0.273-0.375c0.289-0.132,0.764-0.358,0.764-0.803c0-0.055-0.008-0.219-0.016-0.281l-0.132-1.186
		c-0.078-0.725,0.358-0.975,0.515-1.037c-0.156-0.062-0.593-0.304-0.515-1.029l0.132-1.193c0.008-0.039,0.016-0.203,0.016-0.272
		c0-0.453-0.46-0.671-0.764-0.811l0.273-0.375c1.061,0.32,1.061,1.037,1.061,1.1c0,0.023-0.008,0.226-0.016,0.273l-0.14,1.279
		c-0.055,0.468,0.21,0.725,0.655,0.764V88.508z"/>
</g>
</svg>
